<mxfile host="Electron" modified="2023-09-20T17:44:19.552Z" agent="Mozilla/5.0 (Windows NT 10.0; Win64; x64) AppleWebKit/537.36 (KHTML, like Gecko) draw.io/21.7.5 Chrome/114.0.5735.289 Electron/25.8.1 Safari/537.36" etag="PJ9Gs72RoZBHKKFcKhTm" version="21.7.5" type="device">
  <diagram name="library-diagram" id="VsCXR4ot9CIqGRiB3McF">
    <mxGraphModel dx="1993" dy="1367" grid="0" gridSize="10" guides="1" tooltips="1" connect="1" arrows="1" fold="1" page="0" pageScale="1" pageWidth="850" pageHeight="1100" math="0" shadow="0">
      <root>
        <mxCell id="0" />
        <mxCell id="1" parent="0" />
        <mxCell id="l2QLVtC1Fgoo-gUZ7Y_P-1" value="" style="verticalLabelPosition=bottom;shadow=0;dashed=0;align=center;html=1;verticalAlign=top;strokeWidth=1;shape=mxgraph.mockup.containers.userMale;strokeColor=#FF6392;strokeColor2=#008cff;fillColor=none;labelBackgroundColor=none;fontColor=#5AA9E6;rounded=1;" vertex="1" parent="1">
          <mxGeometry x="-113" y="95" width="100" height="100" as="geometry" />
        </mxCell>
        <mxCell id="l2QLVtC1Fgoo-gUZ7Y_P-7" style="edgeStyle=orthogonalEdgeStyle;rounded=1;orthogonalLoop=1;jettySize=auto;html=1;strokeWidth=2;strokeColor=#FF6392;labelBackgroundColor=none;fontColor=default;" edge="1" parent="1" source="l2QLVtC1Fgoo-gUZ7Y_P-2" target="l2QLVtC1Fgoo-gUZ7Y_P-4">
          <mxGeometry relative="1" as="geometry">
            <Array as="points">
              <mxPoint x="126" y="124" />
              <mxPoint x="126" y="124" />
            </Array>
          </mxGeometry>
        </mxCell>
        <mxCell id="l2QLVtC1Fgoo-gUZ7Y_P-2" value="" style="verticalLabelPosition=bottom;shadow=0;dashed=0;align=center;html=1;verticalAlign=top;strokeWidth=1;shape=mxgraph.mockup.containers.userFemale;strokeColor=#FF6392;strokeColor2=#008cff;fillColor=none;labelBackgroundColor=none;fontColor=#5AA9E6;rounded=1;" vertex="1" parent="1">
          <mxGeometry x="-5" y="95" width="100" height="100" as="geometry" />
        </mxCell>
        <mxCell id="l2QLVtC1Fgoo-gUZ7Y_P-8" style="edgeStyle=orthogonalEdgeStyle;rounded=1;orthogonalLoop=1;jettySize=auto;html=1;strokeWidth=2;strokeColor=#FF6392;labelBackgroundColor=none;fontColor=default;" edge="1" parent="1" source="l2QLVtC1Fgoo-gUZ7Y_P-4" target="l2QLVtC1Fgoo-gUZ7Y_P-5">
          <mxGeometry relative="1" as="geometry" />
        </mxCell>
        <mxCell id="l2QLVtC1Fgoo-gUZ7Y_P-28" style="edgeStyle=orthogonalEdgeStyle;rounded=1;orthogonalLoop=1;jettySize=auto;html=1;entryX=0.982;entryY=0.537;entryDx=0;entryDy=0;entryPerimeter=0;strokeWidth=2;strokeColor=#FF6392;labelBackgroundColor=none;fontColor=default;" edge="1" parent="1" source="l2QLVtC1Fgoo-gUZ7Y_P-4" target="l2QLVtC1Fgoo-gUZ7Y_P-2">
          <mxGeometry relative="1" as="geometry">
            <Array as="points">
              <mxPoint x="149" y="149" />
              <mxPoint x="149" y="149" />
            </Array>
          </mxGeometry>
        </mxCell>
        <mxCell id="l2QLVtC1Fgoo-gUZ7Y_P-4" value="" style="shape=image;verticalLabelPosition=bottom;labelBackgroundColor=none;verticalAlign=top;aspect=fixed;imageAspect=0;image=data:image/png,iVBORw0KGgoAAAANSUhEUgAABCEAAAQgCAYAAADYLkZbAAAAAXNSR0IArs4c6QAAAARnQU1BAACxjwv8YQUAAAAJcEhZcwAAMsAAADLAAShkWtsAANwcSURBVHhe7N0HuBRVtvbxJueclSRJoopiAFEBATEr5gSoM6Yx65gD5jTmMWfFOOaIOaOoIIoigpIkKIKSo7Bur22194AL6OpT1V1V/X+f5/fd71451d1VfU7XXr332ilCCCGExDuSGtzLMHRDVqeGvJstSQ2RbFg/uzbruazHGq/Le8mEEEIIIYQQQggpbdYadP81GP/7QN4uAhSb/z8faxQuFIULQgghhBBCCCHFk5ID4bS/Bsgliwl/DqDtATbCsea5X6NwoShcEEIIIYQQQgiJXjIDVs9fxQVr4It4MgoVFCgIIYQQQgghhAQfHXCWsMYMBmvAiuJDkYIQQgghhBBCSNbRQaOHIgMCR5GCEEIIIYQQQoosOvDzsGQCkbFWgYLiBCGEEEIIIYTELV6xoRfFBsQVxQlCCCGEEEIIiVgyxQYdqFFwQHH4qzBBcYIQQgghhBBCwooOuBTFBmBNzJoghBBCCCGEkByTKTbogIpiA5A7ihOEEEIIIYQQslYoOAD5RFGCEEIIIYQQUkTRwY8WHCg6AIVXcraE9ytKCCGEEEIIIfGMFhwoOgBxw2wJQgghhBBCSAziFR1YWgEkCkUJQgghhBBCSASigxJmOQDF5c/fd5ZwEEIIIYQQQkKMFhwoOuDd1ACT9W9RTChKEEIIIYQQQkoZig7RV7IQMDS1xd/0SjXOmrvkIbMe12K9FlXy9VrnA4VXYqYEyzcIIYQQQggh644OGjKFB2twgXCVHGCXHHivPUB3lwp/kzk/Jc+dKnlerfOOsDFLghBCCCGEEOIlU3Sg8BCOtYsKFBOipeT1WLtwYV1PBIGiBCGEEEIIIUUTLTpkCg/2AAF+lCwylBzQulONRKBIESYKEoQQQgghhCQumaIDhQf/ShYZShYa3GkF0tYuUmTeM9b7CRtCUYIQQgghhJDYRYsOmcKDfaOPDIoMCJtVpLDei1gbBQlCCCGEEEIim0zRgcLDumUKDhQaEBUUJ/ygKEEIIYQQQkhBkyk82DfsxStTbGBmA+IqU5igOLEuFCQIIYQQQgjJSyg8rClTcKDYgKRj1sS6UJAghBBCCCEk0FB4+PvsBndaAFCcWAMFCUIIIYQQQnJKMRceMgUHZjcAuSlZmLB+x4oDBQlCCCGEEELWm2ItPJQsOrjTACBwxT1bwhUkeqXPAyGEEEIIIcWdTOGhmIoPOgjSwRBFB6Bwine2BAUJQgghhBBSZCmmwkPJWQ4UHYDoKs6iBAUJQgghhBCS0BRL4YFZDkByZIoSxbGEg4IEIYQQQghJQDLFB/umN/6Y5QAUj+KZLUFDS0IIIYQQEqMkufDATAcAGZmiRHJnSrDDBiGEEEIIiWi08KA3q0ksPmRmO7iXCQDrkOxZEhQjCCGEEEJIBKLFh6QVHlhiAaC0kjtLgtkRhBBCCCEkz9HCg96EJqX4oIMEZjsACFMyZ0lQjCCEEEIIISFGiw9JKjww2wFAISRvlgSzIwghhBBCSEBJSuGB2Q4AoipZsyQoRhBCCCGEkByShOIDsx0AxE1yZkkwO4IQQgghhGwgSSo8uJcDADGXjFkSriDRK/16CCGEEEII0TvdeBcfKDwAKAZxnyHx5+cMsyMIIYQQQoo2ejMY1+IDSy0AFLP4L9mgGEEIIYQQUhSJ86wHCg8A8HfxLkhQjCCEEEIISWTiWnyg8AAA2YtvQYJGloQQQgghiUgciw8UHgCg9OJZkKAYQQghhBASy8St+EDhAQDCE9eCRPq5E0IIIYSQKOfPb5Gsm7no0RviTPHBPXUAQOi0IGH9TY4uihGEEEIIIZFKXGc9uKcOACgILUbEqyBBMYIQQgghpKCJU/GBwgMARFe8lmvQN4IQQgghJK+h+AAACIP+vY7L7Ig/PwcpRhBCCCGEhJa4FB8oPABA/MVtdkT6ORNCCCGEkCCiN1f2TVe0UHwAgOSJ0+wIihGEEEIIIaVIHIoPFB4AoHhoMSIeBQmKEYQQQgghWYfiAwAg6ihGEEIIIYTEPOmbpUj3fKDwAABYWzxmR1CMIIQQQgj5K1EuPmjhQW8uKT4AADaEYgQhhBBCSIQT9eIDhQcAQC60GKGfI9bnSzRQjCCEEEJIEYXiAwCgGER/qQbFCEIIIYQkOBQfAADFimIEIYQQQkieEuXig94UuqcIAEAeRLUY8efnNMUIQgghhMQ4US0+MOsBAFBo0Z0ZodtkU4wghBBCSIxC8QEAgOxoMSKaBQmKEYQQQgiJeCg+AACQG4oRhBBCCCFZhuIDAADBiWoxIv3cCCGEEEIKmz+/IbFuVgpDCw968+aeGgAAMUYxghBCCCHES9RmPzDrAQCQVBQjCCGEEFK0ofgAAEBhaDEiWgUJ+kUQQgghJKRQfAAAIBqiNzOCQgQhhBBCAsyf33RYNx35R/EBAIA/UYwghBBCSKISpdkPFB8AALBRjCCEEEJIrEPxAQCA+Ilgv4he6edFCCGEELLuUHwAACDeolaMSD8nQgghhJA18+c3FtbNQ/5RfAAAoPQoRhBCCCEkctGpklGZ/aA3S+4pAQCAwFCMIIQQQkjBQ/EBAIDiEp1iBP0iCCGEkKLKnx/+1k1BflF8AAAg/6JUjEg/H0IIIYQkNVGZ/UDxAQCAwqMYQQghhJDQQvEBAABYolGMoBBBCCGEJCJRWHrBdpsAAEQfxQhCCCGE5JwoLL2g+AAAQLxQiCCEEEKI70Rh9gNLLwAAiC+KEYQQQgjZYKIw+4HiAwAAyVHoYsSf9zVs50kIIYRELoWe/cDSCwAAkqvwMyOYFUEIIYREIoWe/UDxAQCA4sASDUIIIaTIw9ILAACQb8yKIIQQQoosOvvB/lDOD5394J4GAAAoWhQjCCGEkISHpRcAACBK9L6gsMUIChGEEEJIKNEPWfvDN3wUHwAAwPowK4IQQghJSAo9+4G+DwAAIFuFnhWh903p50EIIYSQXFLo2Q/uKQAAAPjEEg1CCCEkRink7AeWXgAAgCBQiCCEEEJiEC1A2B+m4WPpBQAACBrFCEIIISSi0Q9K+wM0XMx+AAAAYdL7DL3fsO5DwkchghBCCFkjOvuhUMsvmP0AAADypcCzImhaSQghhDD7AQAAFJvCFSOYFUEIIaRIU8jZDxQfAABAoVGIIIQQQvIULUDYH4rhYttNAAAQNRQjCCGEkBBTiNkPLL0AAABRRiGCEEIICTiFWn6hH+ru4QEAACKOYgQhhBASQPSDzf7ACw+zHwAAQBwVbjtPChGEEEJiHmY/AAAA5KYQsyL0vi392IQQQkj8wuwHAACA0ivMEg1mRRBCCIlRmP0AAAAQHAoRhBBCiBFdfmF/iIWHbTcBAECxoBhBCCGEeCnE8gtmPwAAgGJDIYIQQkjRJ9/LL+j9AAAAillhdtCgEEEIIaTA0eUX+S5AMPsBAADgT/meFfHnfd/gXunHJoQQQvKbQiy/YPYDAADAmlieQQghJPHJdwGC5pMAAADrl/9iBIUIQggheQjLLwAAAKKJQgQhhJDEJP0hk9ftN2k+CQAA4F+BmlbSJ4IQQkhwyffyC2Y/AAAAlA6zIgghhMQy+S5AMPsBAAAgGBQiCCGExCY6rS6f/R9oPgkAABCOfBYj9P4x/ZiEEEJI9tEChPWhEhaWXwAAAISLWRGEEEIimXwuv6D5JAAAQP7kv2klhQhCCCHrST6XXzD7AQAAoDDyOyuCQgQhhJC1ossv8lmAYPYDAABAYRVgeQbbeBJCCNFPofwuv3APCQAAgEhgeQYhhJC8JZ8FCJZfAAAARBPLMwghhIQe+j8AAAAgg0IEIYSQ0JKvAgS7XwAAAMSH3rdZ93Rh0PvR9GMSQghJciQ1uJf1IRAG+j8AAADEU55nRdCwkhBCkph8FiBYfgEAABBvLM8ghBCSc/QPu/0HP3gsvwAAAEgGChGEEEJ8J18FCPo/AAAAJI/e3+VvG08KEYQQEuvkqwDB8gsAAIBky9+sCAoRhBASy+RrBwwKEAAAAMUhX4UIds4ghJAYRVKDe+WrAMHyCwAAgOKSz0KE3temH5MQQkhUo3+orT/iQWP7TQAAgOKWxz4RFCIIISSK0fVz9h/uYLH8AgAAAIo+EYQQUqShAAEAAIBCoBBBCCFFlnwUINh+EwAAAOui94nWPWTwKEQQQkhBk48GlPR/AAAAQDby0yeCQgQhhBQkFCAAAAAQNflYnsEWnoQQksdInnbAoP8DAAAAcpHHPhHsnEEIIWGGAgQAAADigEIEIYTEPBQgAAAAECd5LETQJ4IQQoKM/mG1/+AGix0wAAAAECR2ziCEkJglHwUItuAEAABAmNg5gxBCYpB8FSDcQwEAAAAhys/yDAoRhBCSU/JRgKD/AwAAAPKJQgQhhEQwFCAAAACQVBQiCCEkQqEAAQAAgKSjEEEIIRFIPgoQNKAEAABAFORn5wwKEYQQYibsAgQ7YAAAACBqKEQQQkgBko8ChHsYAAAAIILC38KTQgQhhLisTg151/5DGQz6PwAAACAOwu8TQSGCEFLkoQABAAAA/L+wCxF6/51+HEIIKb5QgAAAAAD+jkIEIYQEHAoQAAAAwLpRiCCEkIBCAQIAAADYMAoRhBBSikhqcC8KEAAAAED28lGI0Pv09GMRQkhyon/YrD96QaIAAQAAgCQKuxDxJwoRhJCEJB8FiF6pxuYfbAAAACAJKEQQQkiWCXsJBgUIAAAAFAO977Xuh4NCjwhCSOxDAQIAAAAIDoUIQghZRyhAAAAAAMGjEEEIIWuFAgQAAAAQHgoRhBDiJcwCxLupARQgAAAAgDS9L9b7Y+u+OQgUIgghkY+kBg+1/oAFQf/AuocAAAAA8BcKEYSQogwFCAAAAKAwwixE6H1++jEIISQ6oQABAAAAFBaFCEJIUYQCBAAAABANFCIIIYkOBQgAAAAgWoamtjDvr4NBIYIQUqCEWYDQP5zuIQAAAAD4RiGCEJKoUIAAAAAAoo2lGYSQRCTMAgRLMAAAAIDgUIgghMQ6FCAAAACAeKEQQQiJZShAAAAAAPFEIYIQEqtQgAAAAADijUIEISQWoQABAAAAJEPIhYhe6ccghJDco39I7D8wweiVamz+cQQAAAAQPL3/tu7Lg0MhghBSith/WIJBAQIAAADIPwoRhJBIZnVqyLv2H5XSowABAAAAFE6YhQgdR6QfgxBCsk+YfSAoQAAAAACFRyGCEBKJUIAAAAAAikOYhQgdV6QfgxBC1p0wCxBDU1uYf/gAAAAAFA6FCEJIQUIBAgAAAChOer9u3ccHg0IEIWStpP8whLYVJwUIAAAAIPpCLkSwYwYh5M9QgAAAAACgKEQQQkKP/Qei9ChAAAAAAPETViGCHTMIISn9Q2D9gSgtChAAAABAfFGIIIQEHm0QY/1hKC0KEAAAAED8hVWI0HFI+viEkGIKBQgAAAAAG0IhghBS6oRVgHg3NcD8wwUAAAAgvvQ+37r/Lz0KEYQkPhQgAAAAAPgVYiGCHTMISWr0F9z+xS+9XqnG5h8rAAAAAPGn9/vWOCAYFCIISWTsX/jSowABAAAAJB+FCEJI1mErTgAAAAClFVajSrbuJCRBCasPBAUIAAAAoPhQiCCErDMUIAAAAAAELaxChI5f0scnhMQxFCAAAAAAhIWtOwkhfyX9ixvKThhsxQkAAAAgg607CSEu9i9y6blDAwAAAIDHGjeUFv0hCIlRwlqGwVacAAAAANYW1tadFCIIiUHoAwEAAAAg38IqRNAfgpAIhwIEAAAAgEIJcccM+kMQErXoL6b9C1s6FCAAAAAAZItCBCFFEl0vZf+y5o4CBAAAAAC/wihE0B+CkAgljGUYbMUJAAAAIFdhbN1JIYKQCIQCBAAAAIAoCqMQoeOf9LEJIYVIGAUIxVacAAAAAEorxB0z6A9BSCFi/0KWDn0gAAAAAASFRpWEJCQ0ogQAAAAQBzSqJCTmCWMZBgUIAAAAAGGhPwQhMU1YfSDcoQEAAAAgJNY4pPQoRBASWnTdk/2LVzo0ogQAAAAQNhpVEhKz2L9wpcMyDAAAAAD5Qn8IQmKSMJZhUIAAAAAAkG8UIgiJeMIoQGhjGHdoAAAAAMgzGlUSEtGEUYBQ7tAAAAAAUAD0hyAkorF/sUqHZRgAAAAACi2sQkT62ISQXEIfCAAAAABJRn8IQiISChAAAAAAigH9IQgpcHQdk/2LlLtiaUS51VZbScWKFc3/BgAAAMRJu3btpEGDBuZ/S5qQChH0hyAkm+j0IfuXKHe63ip96MQ75phjpHPnzhQiAAAAEGtNmjSR/fffXzp27Gj+96QJoz8EyzIIySIswyidzTbbTB566CHp0aOH+d8BAACAOHjwwQdl4MCBUqdOHfO/J1E4jSpZlkHIOkMBIhivv/663HHHHdK2bVv3v5cpU+Zv/wYAAACIqn/+858yduxY2W677cz/nmRhNKpkWQYh64j9C5O7Ym1Eeeqpp8q4cePkqquukmrVqpn/BgAAAIii7bffXiZNmiT33XefNGvWzPw3SRdGf4j0cQkhJRPGLAh32CLUqlUrGTlypMyYMUOOPfZY898AAAAAUaO9zV599VXR7L333lK5cmXz3xWDoAsR9IcgpETCKEAUSyPKddHlGJpRo0bJDjvsYP4bAAAAICp01sO1117r7mGnTp0qjRo1Mv9dsaA/BCEhRdcn2b8guSvWZRglHXroofLVV1+5P+IffPCB1K9f3/x3AAAAQKGVL19eTj/9dHfvunjxYrnxxhulRo0a5r8tJvSHICSEBL0dJwWIPzVu3FgeeeQR94d80aJF8thjj5n/DgAAACiUTAP1QYMGybRp09y96++//y7du3eXcuXK/e3fFyOWZRASYOgDEa5///vfsnLlSvfH/LfffnPV5QoVKpj/FgAAACiE/v37u5m7mtWrV8tnn31W1L0g1sayDEICShgFCGZBrKlfv34yYsQI9wddM2XKFNl9992pKgMAACASWrduLS+88MJfX5z9+uuvcvnll5v/tpiFVIhgWQYprti/CLmjAPF32gdC/4iXzNtvv+22PbL+PQAAAJAv9erVk9tvv13mz5/v3amKjB07Vrp27Wr++2LHtp2ElCIsw8if3Xbbza2r0+j0Ns3DDz8sXbp0Mf89AAAAELaaNWu6pcJLlixx96canQ0xbNgw89/jT/SHICSHsAwjv1q1aiV33XWX+8OeKUJodAvPjTbayPwZAAAAICxVq1aVAw44QJYuXeruSzP3qKNHj5aBAweaP4M/0R+CEJ/RdUf2Gz93FCA2rG/fvu4Pu/6Bz/yRX7FihZv+VrFiRfNnAAAAgDDssssuMmfOHFm1atUa96cPPPAAvcuyoOMfa1xUOvSHIAlN0Ntx6nSk9GGxAS1atJDXXntN/vjjD/cHPvOHXv/4X3vttebPAAAAAEHTL8e++eYbdy9asgAxceJEOeqoo8yfwd+xLIOQLEIfiMLRLY7233//v/7Il4zux3zqqaeaPwcAAACUVpkyZdz/3GGHHeTNN9/07kLXXCp87733StOmTf/2s7CxLIOQDYRlGIXXqFEj1204MxuiZH788UfZb7/9zJ8DAAAASqtz587y+OOPuyUYa2fhwoXMgsgByzIIWU+CXoZBAcI/XV93/vnnr7EFUsl8+eWXsuOOO/5VqQYAAACC0KRJE7nvvvtcscHK008/LZtttpn5s1g/lmUQYoRlGNGgxQXdKWP8+PHen/u/5+WXX5Zu3bqZPw8AAAD4Vb16dbnmmmtcL7J1ZciQIVKhQgXz57FhQRciWJZBYh/7jZ07ZkGUzj333CMLFizw/uT/PfrfO3ToYP4sAAAAkC3divO4446T3377zbvT/HtGjRolnTp1Mn8e2QmpPwTLMkg8E/QsCAoQpbfTTjvJ119/7f3ZXzOZ5kA33XSTmzZn/TwAAACwIZUqVZI99thDfv/99zV2wVg7J510ktSqVcs8BrIXdH8IlmWQWCboAgTbcQbn4YcfNj8IMv83Xa93ww03SI0aNcyfBwAAANZFlwHvsssuMnny5L8aUa5976n/95kzZ7rlwtYx4B/LMkjRx34j584dEoHYe++93dQ3K5kPiNmzZ8v111/vqtjWMQAAAADLrrvuKmPGjHH3lHpvaX35tXz5crn00kvdkg3rGPCPZRmkqMMyjGjTwoLOdNhQfvnlFxk6dKhUrlzZPA4AAABQkhYgPvjgA+9u8u8zIDKZOHGibLLJJuzMFjCWZZCiDAWIeNhtt93WORuiZObOnSsnnnii62xsHQcAAABQvXr1kjfffNO7i1x35s2bJ9ddd515DJReCMsymA1Boh37jZs7d0gErmbNmnLBBRd4HwXrjzYUOuywwyhEAAAAwLTlllvK22+/7d09rj/6RVjbtm3N4yAY1riqNNLHJCSaYRZEvOywww4yduxY7+PATmYKnc6IOPDAA6VixYrmsQAAAFB8dDmFNpf88MMP5Y8//nD3jeuLbtfJLIjwBd8fgiaVJIKhABE/uh3SySef7H0k2CnZTOinn36SQw891DwWAAAAis/GG28sH330kSxbtszdL66rB0Qmb731lrRv3948FoLFsgyS+Nhv1Ny5QyJ0Xbp0kXHjxv21fdKGMn78eDnyyCPNYwEAACD5Ms0k69atK6+//rosWbLE3SduqAChS3wvuuiivx0P4Qh6NgRNKkmkwiyI+NI+D9p40k9Gjx7tekRYxwMAAEByZQoQzZs3l2HDhsnSpUvd/eGGChCaZ599Vjp37vy3YyI8Qe+WwbIMEonotBz7DZobChD516JFC/nuu++yng2hHzKffvqp7LnnnubxAAAAkDyZAoRurXnHHXdkvQRDs2jRIvnXv/71t2MifCzLIImLTsux35y50WlD6cMij8qXLy9nnXWW+3DINlqwGDlypOy4447mMQEAAJA8zZo1k1tvvVUWL17s3RVml6effppZEAXCsgySqLAMIzkaN24sX331lfcxkV0yhYhtttnGPCYAAACSo0GDBnL77bfLggULvLvB7LJy5Uo5+OCDzWMiP1iWQRIT+w2ZG50m5A6JgjnnnHNk5syZ3sdF9tEeERQiAAAAkqtq1ary8MMP+5oBkVmm8cQTT7htPK3jIn9YlkFiH2ZBJE+NGjVk+PDh7sMi22Q+XMaOHSt9+vQxjwsAAID4qlOnjjz33HOycOFCd9/nJ1q06NGjh3lc5BfLMkisQwEiuQ499FBXUMg2mSKELs0YM2aMHHTQQeZxAQAAED81a9aU559/3hUg9L4vmyaUmaxYsUKuv/56t5WndWzkH8sySGxjvwFz5w6JSChbtqzceOON3keHv+iH0pdffimDBg0yjw0AAID42HTTTd1SCj/Ny0tm0qRJbitP69gonKCXZaSPSUi4YRZE8vXq1Us++OAD7+PDf0aNGuVmVFjHBgAAQPR17dpVhg0b5msbzpL5/fffXb8x69goLJZlkFiFAkRxqFChgpxyyimyfPly72PEf7777js55JBD3LGsxwAAAEA0ZQoQupwi17zzzjvSqFEj8/goPJpUkthEq1z2my436UMiojp16iTPPPOM+xDxW/nW6M9MmTJFBg4cKFWqVDEfAwAAANHSuXNnefrpp922mrnmxx9/lH/+85/m8REd1vgsV8yGIKGEWRDFZ7fddpOlS5fmVITIZNasWRQiAAAAIk77grVu3Vpef/31UhUgNA899JBUrFjRfBxER9DLMpgNQQKP/UbLDQWIeNhoo43ktttuy7kIkfk5LURos8py5cqZjwMAAIDCKVOmjLRq1Uo+/vjjUi3H1YwYMUL22GMP83EQPTSpJJFN0LMg3CERCzolT4sIuS7JKFmIOPfcc5kRAQAAEDHbbrutayyuM2A1uX4BpbngggvMx0A0hTAbgi07STCx32C5YRZEvFStWlXOO++8vz6UShMtRNxwww00KQIAAIgAbSCuy2ZHjx4tf/zxh7tfK00B4rnnnpMtt9zSfCxEl47PrHFb7liWQUqZIGdB6HQfd0jEiu7v/OGHH5Z6faBmzpw5ctddd0nHjh3NxwIAAED4atWqJccff7yMGTPGu0srXQHi119/dTujaW8J6/EQbUEuy6BJJSlVgl6GodN93GEROwceeKDrdFyaZD7YdL9pbVi03Xbb/XV8XYtY8vEAAAAQjo033lj+/e9/y/fff+/uzYLIVVddJU2aNDEfD9FHk0oSmQS5JSfLMOLvlltukYULF3ofNaXPCy+8IDvuuCMNKwEAAPKkadOmcuWVV7plskHl888/l7Zt25qPh/gIclkGsyFITgl6FoQ7JGJt0003dYWDIDNy5Ejp37+/+XgAAAAIToMGDeSBBx4I9EuluXPnyl577cWWnAlhjeNyR5NK4jP2Gyk3zIJIjsMPP1y++eYb72MnmEycOFGOPvpo8/EAAABQem3atJE33ngjkGbjmSxYsMD1+tJG5tZjIn6CXpaRPiYh2YVmlFgXrXLrVptBRntFTJs2TYYOHeq6NFuPCwAAgNz07NnTzT7VAoTed5WmAWXJfPHFF66/hPWYiK8gm1QyG4JkHfsNlBtmQSRPhw4dXGPJoDNz5ky57bbbpH79+ubjAgAAIHva+Puggw5yW3BmdjkrbQEi8/M//PCDa1xuPS7ijSaVJO8JchYEBYhk0g+0XXbZRSZMmOA+hILMb7/9Jvfdd5/rP2E9NgAAADasRo0acuKJJ8pXX33l3WUFl/nz58uNN94oVapUMR8b8ceWnSRvCbIAodwhkUi1a9eWU0899a+qepBZsWLFX1t4ZrbuZAtPAACA7OhWmWeffbbruxVGnn/+edliC75sTDJmQ5C8xX7D5IZZEMnXqFEjee2112TVqlXeR1LpU3KK4DPPPCM777wz3ZYBAACy1LJlS7nsssvk119/9e6ogo0WNg455BDzsZEsbNlJQg+zIOBX2bJlZdttt5WpU6d6H0vB58MPP5R99tnHPZb1HAAAAPAnLUDcfffdsmTJEu9OKvicc845UrNmTfPxkTw0qSShxn6j5IZZEMWjfPnycvHFF8vs2bO9j6bg891338mxxx5rPj4AAABS0q5dO3nllVdk+fLl3h1UcMnMVH322Wdls802Mx8fycSWnSS00IwSpaHVcP3QC3JZRsnocXW2xVVXXcWMCAAAgLX0799fRowYIcuWLXP3TkFtwZmJHm/OnDmy0047mY+PZGM2BAk82iTEfoPkhiJEcerdu7d8/vnn3kdV8NEPvxkzZshdd90ldevWNZ8DAABAsRk8eLCMGjUqsC0415WTTz7Z7bhhPQckG00qSeBhFgSCoDMUzj33XPnll1+8j6pwolt4PvDAA2zhCQAAilrVqlXdTmVff/21d5cUTnTXsuHDh0vTpk3N54HiwJadJLAEWYBQ7pAoWs2aNZPbb7/d+8gKL1rp1y08e/TowdadAACg6OgWnNogcvLkyd7dUXjR3TB23HFH7rmKHLMhSGCx3xC5YRZEcct8MOmHlE4JDCslpxhqc6R+/fpJpUqV/vZ8AAAAkqh169ZyySWXuNmhYWfu3Lly5ZVXms8DxUfHe9Y4MBfMhijSMAsCYdCCwJAhQ0LpzGxFt/A84IADpHLlyubzAQAASAL9wqdjx47y3//+N/T+D5m88MIL0rBhQ/P5oDgF3KSS2RDFFvuNkBtmQaAkXTN4xx13eB9f4UenIl5wwQWuEMFUQQAAkER9+vSRt99+2xUewi4+aEaOHCl77723+VxQvIJclsFsiCILzSgRNt1DWtcQhrVtZ8noB7FOF3zmmWekRYsW5vMBAACII51letppp8kPP/wgf/zxx1/3PmFm0aJFcv7555vPB2A2BMkp9hsgN1oNc4cEStBZCQcffLAsWbLE+zgLPwsXLnTLM3bffXcpV66cex7MjAAAAHGlu4Hp9uS6TXk+Zj9kojNaW7ZsaT4ngNkQxHeYBYF8qVu3rjz44IN5LURoRo8eLWeeeabUr1/ffF4AAABRt+eee8pzzz0n8+bN8+5w8pPPP//cNf62nhOQwWwI4iv2hc+NOxywHp07d3azE/KdKVOmyLXXXitdunQxnxcAAEAU1apVSwYPHiwfffRRXpa1lsz8+fPliCOOkGrVqpnPDSjJGh/mgtkQCQ+zIFAIRx55pIwfP977eMtfdAbGU089JTvttBO7ZwAAgMhr06aNnH322TJ9+nTvbiZ/WbZsmdx6662uCGI9N2BtQW7ZyWyIBMe+4LlxhwOydPHFF8uvv/7qfczlN2PGjHHbeNapU8d8bgAAAIVUvnx56datm9x99915az5ZMrq1+jvvvCMbb7yx+fyAdbHGiblgNkRCwywIFJL2h7jhhhu8j7r8R3fPuOSSSyhEAACAyBk4cKBbflGo6IxV3dmMht7wi9kQZL2xL3Ru3OEAnzbffHN5+OGHvY+7/ES/RchYsGCBvPjii7LFFhTRAABA4VWpUkWuvPJKmTRp0l/9H/I5A0Kjj33IIYdIhQoVzOcIbEiQTSrTxyNJCbMgEBU77LCDjBw50vvYy18yH+jaJ0K7Ph922GFSsWJF8zkCAACErUOHDq531c8//5z3BpSZ/PLLL26maNmyZc3nCGQjyC07ddyaPiZJQuwLnBt3OCBHlSpVkgMPPFBmz57tffwVJuPGjXN9KjbZZBPzeQIAAAQps9RBZxzo8ovhw4fL4sWLvTuT/GflypWuBwV9IBAEZkOQNcIsCERNzZo15fzzzy/oB69m1qxZcvvtt0v37t3N5wkAABCkRo0aySmnnLLGrNB8L7/I5Pnnn5dtttnGfJ6AX8yGIGvEvrC5cYcDAqCNKh9//HFZunSp91FYmOh2VK+++qrsuOOOUrVqVfO5AgAAlFarVq3k0ksvlRkzZnh3IflPpuChO4ftuuuu5vMEcsVsCOLCLAhE2aabblrQTtAl8+OPP7o+EfoNhfVcAQAAclG5cmXZdttt5ZlnnnFbYRY6v//+u7vn0SWy1vMFcsVsCOJiX9DcuMMBAdt7771l9OjR3sdiYZL5VmDRokVy1VVXuW8qrOcKAADgh+5+oTtPfPvtt+5eo9DRIsgFF1wgDRs2NJ8vUFrMhijyMAsCcXHmmWfK1KlTvY/H/EeLEJlCRGZ5xs4772w+VwAAgGzUq1dPrrvuOteDqlDbb5aM3uM8/fTTNKJEqJgNUeSxL2Ru3OGAkNSuXVuuvvpqWbFihfcxWdjoh/SoUaPk1FNPlXLlypnPGQAAYF10+YU2fpwzZ05BCw+Z6HP48ssvpWPHjmzHidAxG6JIwywIxI32h7j33nu9j8rCR7+x0D4RN9xwg7Rp08Z8zgAAACVVq1ZNBg8eLO+//74sWbLEu6sofCZMmOCWwFrPGQgasyGKNPYF9I8CBPJJt8p888033YdlFL410Gjzpocfflj23HNP8zkDAACozp07y8UXXyxff/21dxcRjUyfPl3+/e9/MwMCeRXkbAhJDe6VPiaJcpgFgbjSpQ+6XdTkyZO9j83o5NNPP5VBgwaxjhIAAKyhevXqsv3227svLfTLiyhl8eLFcuONN7qt0a3nDoQlyNkQq1ND3k0fk0Q51oXLBQUIFIJuY3XKKafIb7/95n18Rie6e8bNN98s3bp1Y1srAACKXJkyZaRZs2Zy1FFHueUOUczjjz8um222mfn8gbAxG6JIwiwIJEHNmjXlwQcflAULFngfodGKzoo44ogjpGLFiu4GxHoNAAAgufTzXwf3999/vyxdutS7Q4hWRo4cKf369TOfP5AP9IYoktgXzD8KECi0jTbaSN59992/trSKQjJ9KvR//vzzz65Qsskmm5jPHwAAJJM2n/znP/8pY8eOdTt76X1BRlSiu3Lsu+++7PKFgmOnjISHWRBImh49esgXX3zhfZxGLzpTQ79lOPzww5kRAQBAEdhmm23clxD6ZUSUvigpGS2GHHPMMVKrVi3zNQD5FPBsCJZkRC32hfKPAgSionz58jJkyBAZN27cXx+qUYvegOjzu/7666VDhw7m6wAAAPGmPauOO+44eeutt2T+/PneXUD0ovcl2r+qadOm5usACiGo2RA0qIxYmAWBpKpTp45cdNFFMnfuXO/jNZrRbtj/+9//ZL/99nM9LazXAgAA4qdr165y1VVXueaTUfxCJJM//vjDFUk6duzIdpyIFGZDJDRBFSEoQCCKWrdu7baXWr58ufcxG92MGjVKzjjjDGnbtq35WgAAQDzUrl1b9t57b7fDRBzuQbRxNo0oEVXMhkhYmAWBYqCD+qefftpV+aOeefPmybBhw2Trrbd2e4dbrwcAAESTNnNs0aKFnHbaafLdd995n+7RzrfffitHH320+XqAKGA2RMLCLAgUiy5dushHH30kK1eu9D5yoxtdk6nTNgcPHiz16tUzXw8AAIgW7UeljbF1ieWyZcu8T/VoZ9q0aa5gYr0eIEqYDZGgWBcmFxQhEHX6zcSWW24p48ePj/SMiMw2XVqI0OZVDz/8sFtSYr0mAAAQHWedddYa9xlR7gGhWbhwoXvOVapUMV8PECXMhkhIglyK4Q4HRFyFChWkT58+MnnyZO/jN/pZvHixfP7553LsscdKjRo1zNcFAAAKR5dQ6rJP3XozDks/Mzn//POlUaNG5msCoojZEAmIdUFywSwIxIkWIo444giZNGmS9xEc/eg3KVo4uf3222Xbbbc1XxcAAMgvXTJ50kknyYgRI2TJkiXep3Y8ct1110nLli3N1wVEVZCzIdLHI/kOsyBQzKpVqyZnnnmmTJ061fsojke0aeVLL70kgwYNYitPAAAKqHv37nLzzTfLxIkTvU/p6C+/yOTRRx+VDh06mK8LiDprPJqbwUPTxyP5jH0h/GMWBOKqbt26cvHFF8uvv/7qfSTHJ9q08pxzzpHNNtvMfG0AACAcunzh4IMPlpdfflmWLl3qfTLHI7pU5K233nLNusuWLWu+PiDqdPxpjUtzkT4eyVeYBQH8qXnz5nL99dfHpoN1yeguH/pNRq9evdzMDuv1AQCAYOhyzlatWsmFF14Yq95SJTNy5Ejp3bu3+fqAOLHGpbmhQWXeYl8A/5gFgSTo2LGj3Hvvve7DOS7TKEtGZ0WcccYZsvHGG7sdQKzXCAAAclerVi1X9NdZBHHr/ZDJl19+KYcccoj5+oC4oUFlzMIsCODvNtlkE3nllVdiV4TIPF+dDvrGG2/IXnvtZb4+AACQmzZt2rgmjrp8U5cz6Gdv3O4X9AuLf/zjH+brA+KI7TpjlqCKEMyCQJKUKVNGunbt6qYpxmlrrZJZvny52/Hj7rvvlk033dR8nQAAIDvaAPr444+XTz/9VBYsWOB92sZv1qRuG3rqqadKlSpVzNcJxBWzIWKSIGdBUIRA0pQvX1769u0r33zzjfexHc/oDhrvvfeenHDCCVKnTh3ztQIAgHXr37+/PPjggzJlypTYfjmh0aUj5557rmumab1OIM6YDRGTMAsCWD/tFH3YYYfJ+PHjvY/v+EanXt52222usFKpUiXz9QIAgP/Xtm1bOeuss+T999+XxYsXe5+o8YwWT6699lrXhNt6rUASMBsiBrFOeC4oQiDJtBBx2mmnuaUNcY/egLzzzjtuVkS7du3M1wsAQLGrXbu27L777m5J49y5c71P0fhmxYoVMmzYMGnZsqX5eoGkYDZExBPkUgx3OCDBdMvLiy++WGbPnu19nMc7c+bMkfvvv1922GEHlmgAAOCpWLGi66OkXz6MHTvW+9SMd7RH1Ntvv82XDygazIaIcKwTnQtmQaBYNG7cWC6//HJZuXKl97Ee//z444/uRktfm874sF43AABJpw2ptQCx2267yUsvvZSoz3ptsr3VVluxbTeKRpCzIdLHI0GFWRBAblq0aCE33HCD97Ee32S2E1OLFi1y35DsuuuudMoGABQl3Zpb+yb99NNPf+12EbddL6x88cUXrqmm9ZqBJLPGrblhSUZgsU+wf8yCQDHq0qWL65CdhGQKEbpWVG+8/vvf/0qnTp3M1w0AQNLo7ADddnPUqFFu280kFB4yGTNmjBx++OFSoUIF87UDSabjVGv86hdLMgIKsyCA0tEpmx06dJDXX389ETcrJV/D77//7hpXnnzyyVK/fn3z9QMAEHe6BHHnnXeWhx9+WCZPniyrVq3yPgmTEV1u+Y9//MMtMbFeP1AMrPFrbpgNUeoEVYRgFgSKnd68fPbZZ4n61iQTvSG78847ZcCAAfSKAAAkin6RcM4558hHH33kmjYmLb/++qvbVpQvE1DsaFAZoVgnNhfuUECRO+yww2T06NHex36yok25PvjgA7bzBAAkgg7K99hjD7ekctasWd6nXbIyb948ueqqq6RZs2bmOQCKCQ0qIxJmQQDBO+644+Trr7/2Pv6TF10jq/uk68yPWrVqmecAAICo0p4Iuu3mGWecId9995336Za8aAFCZzE2bdrUPA9AMQpqNgRLMkoR+4T6RxECWJM2tRo/frx3G5DM6I3b2WefLc2bN6fJFQAgFurUqeN2hxg+fLgsW7bM+0RLXrQAMWzYMGnQoIF5HoBiFdRsCJZk5JigZkFoNckdDsBfdFB+1FFHyZQpU7zbgWRmyZIl8u6778o+++xjngcAAKJCZz/cdNNNrkeC9m9KYg8nzcKFC+Wxxx6jAAGsA7MhChiWYgDhqlatmhxxxBEyc+ZM77YgWcncvOl2ntq48v7775fNNtvMPBcAABRKvXr15PTTT3fNoxctWuQ+uzRJLEIsXbpUHnroITdL0ToXAJgNUdBYJzIX7lAATLVr15bBgwfLzz//7N0eJDfaK2LkyJFy4YUXSqtWrczzAQBAvuisxEMOOUSee+45mT59uvzxxx/eJ1Yyo6/v3nvvdTM+rPMB4P9Z49pcpI9Fsg2zIID80eaNJ554osyYMcO7TUh29HU+/fTTcuSRR0rjxo3NcwIAQJh69+4tN954o4wZM8bN2Et6tABx3333yeabb26eDwBrYklGAaJTR+yT6A9FCCA7VatWlXPPPVemTZvm3S4kP9qY87rrrpNevXq5GSHWeQEAIChly5aVjh07ul2qXn/99aIoPmi0APHoo49K165dzfMC4O9YkpHnaLXGOoG5cIcDkJVKlSrJZZddVlSFiFWrVsno0aPlpJNOkg4dOrhzYJ0bAABKQ2fe7bXXXm4wrssDiyW6w8dLL70knTt3Ns8LgHVjNkQew1IMoHB0RsTll18uv/zyi3f7UBxZvny52w5t7733loYNG7pvq6zzAwCAH9oEWpcg3Hzzza7vQzFFm1C+99570r59e/PcAFg/ZkPkMdaJy4U7FADftEfERRdd5LbQKpZkOpDPnz/fde3u2bOnlClTxjw/AABkQ2c/nH322TJx4kRZuXKl+5wpluhSkw8++MAVIPg8BXJnjXNzkT4WWVeYBQFEQ6NGjdyNk06jLIaU3AZNX7PeMOq3Vrp21zo/AACsS40aNVzz448//ljmzZvnlv5pkrjl5rry1ltv0YQSCABLMvIQGlIC0bHRRhu5ZpXF0jhr7fz222/uW5xzzjmHXTQAABukW27qsr7HHntMpkyZUnSzHzJ55ZVXZPvttzfPEQB/WJIRcmhICUTPxhtv7HpELF682Lu1KL5MnTrV3VAefPDBbqmKdZ4AAMWtR48ecvXVV8sXX3whS5Ys8T5Bii9agNh5553NcwQgN8yGCDEsxQCiqUmTJnLrrbfK77//7t1iFGe+/PJLV5DZcccdXQNP61wBAIrLpptuKsccc4y8/PLLrq9QMeftt9+W/v37m+cJQO50fGuNe/1iNoQR60Tlwh0KQKB0acY999xT9IUIXdernb7/+c9/SqtWraRixYrm+QIAJFv9+vWlb9++ctddd7nle8WeTz/91M2AYHcpIHhBLclQ6eORTJgFAURf06ZN5f777y/qpRmZ6B7vzz//vOyyyy5St25dbroAoEhUqlRJOnfuLJdcconr+1Ds+eOPP+Tbb7+VXr16UZgHQsSSjBBCEQKIh9atW7tvfYqpw/f68ssvv8idd94pm222mWtIZp0zAED86TaT9erVk5NOOsn1fdDBd7FH7wW+//576dOnj1SuXNk8bwCCQYPKEGKdoFy4QwEIle75rdtXkj9vwLQB2YQJE2To0KFutoh1zgAA8XbQQQfJu+++65ZeUID4M2PHjpUBAwZQgADyhNkQAYZZEEC86LdBXbp0cc0qiz0lZ4T8+uuvrinXKaec4npoWOcOABAfutROGy0+/PDD8sMPP8jy5cu9v/jk888/l/3220+qVKlinjsAwaNBZYCxTkwu3KEA5I3OiLjvvvu82xGi0aLE5MmT3ZaeQ4YMkYYNG5rnDgAQXbq8bqeddpJrr71WRo4cWdRbblr57LPP3MwQekAA+UWDyoDCLAgg3rQXwrBhw2Tp0qXerQnRaDFi/PjxcuONN8ruu+/umlda5w8AEB3lypWTLbfcUk4//XR56623XBNisma0AHHooYcyAwIoEJZkBBCKEED8dejQwX3zX+z7o68ro0aNkvPOO0+22247qVmzpnkOAQCFo8WHNm3ayCGHHCLPPfeczJs3z/sLTkrmyy+/dEswqlatap5HAOGjQWUAsU5ILtyhABRMq1at5KGHHpKFCxd6typk7YwYMUJOOOEEadmyJU28ACACtPjQoEED6du3L59h68nKlSvlm2++cdtS6xal1rkEkD/WeDgX6WMVX5gFASRLs2bN5L///S+Nu9YTXbby4YcfyhFHHCG1atVyTc+scwkACJcWIHSGmm6zrI2FiZ1Vq1a5XTB23HFHd86scwkgv1iSUYoEVYRwhwIQCVqIuPzyy2XFihXe7QvJRPtEKP1Gac6cOW698f77709jLwDIs65du8rtt98ukyZN+qtwnvkbTdaMzuLr0aMHBQggQliSUYpYJ8IvrQK5QwGIDC1EnH/++TSr3ECWLVsmP/74ozz++OOy1157sUQDAEKmPYyuvvpqt70kfR82nOHDh0vPnj2ZtQdEUFCzIdLHKp6wFANIto033tgVIn777TfvVoasK1qs0WZfN910k1uXrFvDWecUAJCbtm3buh0vXnvtNZZeZJlnnnnGbVNqnU8AhRfcdp1FtCSDpRhA8jVs2FCGDh0qM2bM8G5pyPqiDdHee+89Oeecc2SbbbZh6isAlFKLFi1cD55HHnlEpk2b5v21JeuLLhn83//+JzvssIN5TgFEA0sycoh1AvxiFgQQfbol5WWXXSaTJ0/2bm/IhrJo0SJ58cUXZdCgQW7qMNNgAcCfxo0bS79+/eTmm2+WH374wfvrSjaUJUuWyLPPPivdunUzzyuAaGFJho+wFAMoLrqf+IUXXkghwme0GPHoo49Knz59XDGnfPny5vkFAPypRo0asskmm8jFF1/seu6Q7KOz8bQA3r59e/PcAogelmT4CEsxgOJTpUoVOe2002TKlCne7Q7JNnPnznX71+v2aNovokyZMuY5BoBipX8XdenFmWeeKRMmTJA//vjD+wtKsokWIHQGRMuWLc3zCyC6rHGyX0WxJMN64X4xCwKIn+rVq8tRRx3ltkQj2SWzXZxueaoFnPvuu49psgBQQpMmTeTUU091O17oDLJVq1ax3aaPaAHi4YcflubNm1PkBmKIJRlZhKUYQHGrVauWHHLIITJu3Djv9odkG72hXrBggXz11Vdyyy23uOaV1jkGgGKgxYdTTjlF3nzzTfn555+Z/ZBDfv/9d/d50rp1a/McA4g+lmRkEZZiAND+BgcffLCMGTPGuw0ifqNbn3744YdyxRVXSI8ePdhJA0DRaNasmRx//PHy9NNPuxliFB9yi25Veu2110q7du3M8wwgPqzxsl+JXpJhvWC/mAUBxJ/2iDjssMNk5MiRTJktRbQYMXz4cLcOWmdGaM8I63wDQNzpcgH93LjnnnvY8aKU0ZkjV111lbRt29Y81wDihSUZ6wlLMQCUpFtP6g3lRx99xDdZpcy8efPkpZdekqOPPlq6dOniijzWOQeAuGnatKnstttubtnAxIkTvb96JNfMmjXLzaLTRp7W+QYQPyzJWE9YigHAcuCBB8r777/PjIgAsnTpUnnhhRfkoIMOctvUVapUyTznABBlWqSuV6+ebL/99nLDDTfQ0DigzJw5Uy699FJp2LChed4BxJc1bvYrkUsyrBfqF7MggGTSb7m0uRgJJkuWLJGXX35ZDjjgAHcjT8dzAHFRtWpV2WKLLeTGG2+Un376yfurRkqbGTNmyPnnny+1a9c2zzuAeGNJhhGWYgBYn/Lly0uvXr3ct/gk95Tclk63qcv0jNAdSapVq2aeewCIii233FJuuukmmTZtmixfvvyvv2nMlCtdJk+e7LYx1QIERWkgmViSYYSlGAA2RJcO9OzZU5544gnvtokEkWXLlrkbeu0Zceihh0qNGjXM8w8AhbLddtvJzTffLGPHjpX58+dTdAgw33zzjRx33HFuVpx17gEkhzV+9itRSzKsF+gXsyCA5KtYsaJsvfXWcu+998rKlSu9WygSRPRbxe+++06GDRvmZkZQjABQaN27d5drrrnGNSieO3eu99eKBJWPP/5YjjjiCAoQQJFgSUaJsBQDgB86VbR9+/Zyxx13uF0fSLDRnUjGjBkj119/vey+++7SuHFj8zoAQBh0K2EtNuvygFdffZW/8yHlnXfekX322UeqV69uXgcAycOSjBJhKQaAXLRq1cptyab7mZNw8tVXX8nll18uvXv3pls6gFBpw0ndQvif//ynPP/887J48WLvLxEJMitWrJC33npL+vfv73YZsa4FgOSyxtF+JWJJhvXC/GIWBFCcGjVq5AbJuq0YCS/jxo2T8847z3Wkp3EZgCBVqVJFmjVr5nrSvPjii7Jo0SLvLw8JOnpudaeprbbaSsqVK2deDwDJxpKMdFiKAaC0atasKaeddprbXoyEF91NY/z48a4Y0bZtW1eIoBgBIFf6Lbz2ntlvv/3kjTfekAULFnh/bUgYWbhwoTz77LPSpk0b83oAKA4syUiHpRgAgqA3svot2g8//ODdbpEgU3IbvKVLl7oO9Zdddpm0a9fOvB4AsD7ah+DAAw90xQdtOKm9aDJ/a0jw0R1F7rrrLmnevLl5PQAUF2s87Vesl2RYL8gvZkEAUFqI2GuvvWTUqFHebRcJKzor4rfffpPPPvvMLYfRRqHWNQGAknQ5l+7G8MILL8j06dPdrjwk3GjfpEsvvdQtebGuCYDiU9RLMnQKh/Vi/KIIASBDG5vtuuuubs2rDpQ1fLMWXvTc/vLLL67J2fnnny+dOnUyrwuA4la3bl1XfHjkkUfk+++/l2XLlnl/RUiYmTBhgpx++unStGlT87oAKE5FvSSDpRgAwqDNtnbZZRe39nXJkiXerRgJO7NmzZJnnnlGTjzxRNfh3ro2AIpLgwYNZODAgXLrrbe6ZVy6MwPJT3Sr5eOPP941cLauDYDiZo2r/Yrlkgx90taL8YNZEADWZYcddpDHHnvMrYUl+YsWIx599FE57LDDZNNNN5Xy5cub1wdAcmnxYeedd5YrrrjCDYaZkZa/6LnWZYlDhgxxjZut6wMAQSzJiGURwnohflGEALA+Xbt2dc24KETkP7Nnz5aHH35Ydt99dzcVuEKFCuY1ApAc2vOhW7ducuGFF8qXX37p/TUg+crKlSvl008/dbNPKlWqZF4jAFBFuSSDpRgA8qVVq1bu2zhdmqHfEPGNXH6jDSwfeugh6du3r9SpU8dty2ddJwDxVblyZTfz6aKLLnLLLvg7m//oDiNvv/229OrVixloADaIIkSOdAqJOxQAbED9+vVdcy72oc9vMkUfbRKqMyOGDRvm+nXogMW6TgDipUyZMtK6dWtXfBg3bpzbwpdib2Hy5JNPutl/1nUCAEvRLcmwXoBfLMUA4Efjxo3lyCOPlBkzZni3bCQfyQxG9H/qbJRJkya5YoQu0+DbOiC+OnTo4IoP2n/g999/d9/Ek/xHz7s2/tSGwNqY2bpWAGApqq06dcqG9eT90ikk7nAAkCVt0jVo0CD55ptvvNs3UogsWrRIvvrqK7n77rtlt912Y2YEECM62NUteXXq/88//+z9VpNCRPsdXXnllW4pjHWtAGB9impJBv0gABRSlSpV5PDDD5ePP/6YKcMFjs6MGDFihFxzzTVumUatWrXMawag8DbbbDM59dRT3fbHM2fO9H6LSaGis/qGDh0qLVu2NK8XAGTDGmf7N3ho+ljRDltzAig0nbK6//77y5tvvinLly/3bulIoaLX4MMPP3TfrurWqvXq1TOvG4D80l1tOnXqJIMHD3bLqLS3Cyl8JkyY4HYg0a1QresGANkqmr4Q1hP3iyIEgCD0799fXnzxRVm8eLF3a0cKGV3bPHLkSDnzzDPdt6663Z913QCES7d31G/YtVj76KOPup4PpPDRJr9ff/21nHHGGVK9enXz2gGAH0EtyUgfK7phKQaAqNlyyy3dN3zLli1zN3ks0Sh8tBihPSN0R5OmTZu6b2O1C791/QAER3/XdMnannvuKc8884zMmzfP+60kUYgWaY844gh3nazrBwB+FUVfiCCKEGzNCSBIZcuWlVatWslVV13lGiaSwkaLQEq/8dPCkDYR1WUam2yyiXn9AARDd6sZOHCgDB8+XObMmfNXQZbCbDTywgsvSN++fSlAAAhc4pdkWE/YL5ZiAAiaFiI23nhjOfnkk2X69OneLR+JQrQYod/GfvHFF3L55ZdLx44dzWsIIDc6rV+/XX/55Zdds0Pt0ULhIVq57bbbpFu3blKxYkXzGgJAaSR6q06domE9Wb/YmhNAWHR3hiFDhsiYMWO8Wz8Spfzyyy/y3nvvySWXXCJbbEFBGiiNRo0aub93TzzxhEycOJEmvRGMbsF5xRVXuOKrNlS2riMAlFail2TQDwJAHFStWlUOOuggeeutt1xvAhK9aIf+l156Sc466yzZaqut3DRy61oC+LtmzZq5bYrvueceGTdunKxcudL7zSJRyuTJk91StObNm5vXEQCCZI27/YvgVp1szQkgLvQbpwEDBshzzz1Hn4gIZ+7cua553rHHHiubb765VK5c2byeAFJuMLv33nvLTTfdJN9//733W0SiFl2CprPxdJegOnXqmNcSAIKW2L4Q1hP1iyIEgHzSNbiPPPKI/Pbbb97tIYlidMqybrWq69q1gaXOZrGuJ1BstKDaoEED6dWrl/znP/+RH3/80futIVHMihUr5KOPPpIjjzySBpQA8iqRW3WyFANAXOle+XrzTiEi+tFZK6+//rpbTtOwYUNu4lG0tPigW212795dbrnlFpk6dar3W0KiGp0B8eqrr7pZeNY1BYAwJbIvRBBFCJ0i4g4FAHlUpkwZN6A97bTTXOd4Es2U3NpzwYIF8vbbb8ugQYOkXr165nUFkkp3+9Hiw7333uuKD5neNux4Ed3otbn77rvd7Du9ftZ1BYCwJW5JhvUE/WIpBoBC0rW5hxxyCDtnxCQ6rVkbWL7xxhty/PHHu50ArOsKJIXOfujdu7fcd999brcLnRlE4SH6Wbp0qQwdOlTatWvHDhgACiqIIoRKH6vw0SkZ1pPzi605ARRajRo1ZM8995Thw4d7t48k6tFtB6dMmSIvvPCCnHTSSdK0aVPz2gJxpQ1Zd911V7njjjtckVRnApF4RGfXnX766dKiRQtmQAAouEQtyaAfBIAk0T4DO++8szz++OOyZMkS71aSRD06JV2b8g0bNkyOPvpoadWqlXl9gbjQouhuu+0m1113nXzyySeycOFC791O4pAvv/xSTjjhBJaMAYgUaxzuXwS26gyiCMFSDABRs/XWW7t99nXKP4lXtBih668PPvhgad26tev7YV1jIIp0aZguu7jwwgvl448/phgas+jsrHfffdf1rGFbYQBRk5i+ENYT84siBIAo0m/Tb7jhBvnpp5+820sSp+gyDZ3Crt8mb7zxxlK+fHnzOgNRULt2bdlqq63kjDPOcDMfMg0nSXyyePFieemll9yyPoqfAKIoEVt1BtUPwh0KACJIp9KeddZZbkBL4plZs2a5Zn69evWSunXr0hwOkaEDVf22vGPHjvLvf/9bPv/8c5pNxiyZ67Vs2TJ58MEHZdtttzWvNQBEQSL6QtAPAkAx0LXZhx12mHz11VfuZpPEL7q1588//+wGCX369JGqVaua1xrIFy1AtGnTxi270IaTOo2fxDO6A8YVV1whbdu2ZQYEgMgLZpeMmBchWIoBIA6qVasmu+yyi7z++uvebSeJW/QbS/22curUqa6B5e677y5VqlQxrzcQpvbt28sll1zimhfOmzfPFclIPKN9gzI787ADBoA4iH1fCOsJ+UURAkBc6LTpHj16uKn9Opgl8c2iRYvk22+/dc1HtWeE7opiXXMgSLrs4rzzzpMPPvhAfv31V4oPMc/o0aPliCOOkAYNGpjXGwCiKIglGbEvQuhJcIcCgBjQqbZdunSRq6++WqZPn+7dipK4Rrc9HDlypFx77bVuR4JKlSqZ1x0ojU033VROPPFEeeGFF2TGjBneu4/ENbr8QhtQ7rvvviztAhA7sW5OST8IAMWsWbNmcu6558rYsWO921IS52hX+zfeeMM1B9TtWXX5jXXdAT822WQTOfTQQ10vEprbJiM6gyXTW8a65gAQB9a43L8C9IWgHwSAYqcNK48++mj57LPPZMWKFd4tKolzlixZIi+++KIcddRR7ttrekbAL50t1aRJE+nXr5/ceOONrgcJSUZ0Fst//vMf6dSpk3ntASAuYtsXQh/UejJ+UIQAEHfaS0AHG/otuk7RJcmILtPQYsR+++0nDRs2lIoVK5rXH8jQpoQ6g2abbbaRq666SiZPnuy9m0jcs3LlSldM0gaUjRuzjBhA/Ok43Bqf+1GQIoT1RPyiHwSApNA+EdqwUgevJDmZO3euW8evO2mw9hvro9+OX3PNNfL999/TcDJB0Vluuj3zXnvt5Wa/WdceAOImln0hdP2H9ST8cocCgIRo3ry5nH/++TSeS1h0JxS9po8//rjsuuuubpcU6/qjOLVr106uuOIKGTNmjCtC6lawJBnR2W06I2q77bZjNhSAxLHG5/7lsS9EEP0gdB2KOxQAJIhO1T3yyCPl888/925jSVKizSt1W8877rhD+vbtK+XKlTPfAygOrVu3lrPOOkvef/99tttMYGbPni0333yzbL755vyuA0ikIPpCaF0gfaz8hKaUALButWvXdr0EXn75ZQYmCcz8+fPlww8/dLNeOnfubL4HkFz169eXgw8+2M2M+emnn7x3BUlSxo0bJ+edd55rTmu9BwAgCWLXnNJ6An5RhACQZDp1t1evXvLYY4/JvHnzvFtbkqT8/PPPMmzYMDnggAPcbgjW+wDJoTul9OjRQy677DIZNWoUBcaEZuTIkXLMMcfQgBJA4sWqLwT9IAAgex06dHDT96dPn+7d4pKkZfz48TJ06FC3K4LujmC9DxBf5cuXlxYtWsigQYPk9ddfd8tySPKi1/W9996TPfbYg99jAEXDGqf7l4e+EEEsxVDuUABQBBo0aCAXXHCB/PDDD3x7mtDoFn5vv/226wey8cYbs4Y8IWrVqiU9e/aUu+++2/UIIMnM77//Ls8//7xstdVW5vsAAJIqoL4Q8ShCsBQDQLHRb9YOO+ywvxpWagd9uugnL7/99ptbgtO7d2/3Dbr1XkA8aOPJc845x225SZKXzN9fXVZ1yy23uN2NrPcBACRZbPpCWA/sF0UIAMVI15Tr4PTpp592N78kedGBjW7pqQPX//znPzS2iyFtLKszWnRmizYhzcxeomiYvOhuNyeffLI0bNjQfC8AQNIF0RciNkUIdxgAKEKVK1eWLbfcUm688UZZtGiRdytMkhYdsM6dO9f1ENAZMDVq1DDfD4iW7bbbTm6//XaZOHGirFixwruaJIl54403XFPZevXqme8FACgGsWhOST8IACi9smXLSrt27VyfiB9//NG7JSZJjA5kdSeFM844g+neEVapUiXZc8895dlnn5U5c+Z4V48kMTpTSXe16devHw0oASDNGq/7F2JfCPpBAEBw6tevLyeeeKKMGDHCNTYkyY1+s37VVVfJ5ptvLmXKlDHfDygMnYp/xBFHyLvvvitLly71rhhJYqZNm+b6P2yxxRY0jwUAT+T7QujBrQf1gyIEAPy/ChUqyP777y8vv/yyLFiwwLtVJkmM7q5w3333ud0WdFmO9X5AfmnzyVNOOUXGjh3rXSWSxPzxxx/yzTffyMUXXyxNmjQx3wsAUKwi3xfCekC/9EW6QwEA/tKtWze566673FZxJLnRb9qHDx8ue++9t1SvXt18LyB8OhtFvw2/9tprZcaMGe7a0HgymVm+fLl89NFHcvjhh7vmwNb7AQCKWaT7Qug6D+vB/HKHAgD8TdOmTV3vAN0yLtORnyQv+q2sfvN+/PHHS506dcz3AsLVp08f+d///sfso4RH+z888cQT0qNHD5ZfAMB6WON2/0LoCxFEPwhdb+IOBQAw6faA++yzj3zxxRcUIhIcbVg5evRoOeqoo6RWrVrmewHh0OUwjz/+uPz222/e1SBJjC5/Gjp0qLRp04Y+LACwAUH0hYhsEYJ+EACwYTpleIcddpDHHntMFi9e7N1Sk6RFCxHaC6R///70iMgDHYhusskmcv3118v06dO9q0CSGC3iaoFvo402Mt8LAIA16TjdGr/7EUpfCJpSAkD+6DaeXbt2lauvvlqmTJni3VqTpEUHw9osr2XLlub7AMEpX768HHDAAa4/gPYJIMmL7jL0/PPPu9lkOqvMeh8AAP4uss0prQfyyx0GAJA1HZyedtpp7ps9krzobIgnn3xSttpqK/P6Izg62+TCCy/8qxElSVa0l84999zj+j/orkPWewAAsG7W+N2v9HGCjfUgfrnDAAB8qVmzphx44IHy7rvvyqJFi7xbbpKUvPLKK7Ltttua1x7B0WVOV111Fb0gEhbtnTNhwgR3bXW5jXXtAQAbZo3f/QuwLwRNKQGg8HSgqh39586d691+k7hHp49rk0RdemNdcwSnUqVKct5558lPP/3knX0S12S2U9WZRDpLTHea0WKtdd0BANmJXHNKmlICQDQ0a9bM9YmYNWuWuwkn8c7vv/8ut912m3To0MG83ghOxYoV3WD122+/dcUfEs9oAULpVrfa/6Fv374svwCAAARUhBiaPlYwoQgBANGgHf7r168vQ4YMkS+//NK7LSdxjX4rf8UVV0irVq3M643g6ED14IMPlhEjRsjSpUu9K0DiGF2Wds0110jnzp0pQABAQCLXnNJ6AL/0RblDAQBKrUaNGrLLLrvIM88846Ykk3jm+++/lzPOOEM23nhj8zojOOXKlZNdd91Vhg8fzta3MY72fzjhhBOkefPm7ppa1xoA4F8iixDuMACAwOiWg9tss43cdNNNLM+IaXQ2y1FHHSX16tUzrzGCo9vebrfddvLUU0/J/PnzvStA4hIttr7xxhtuNkudOnXMawwAKB1rHO9X+jiljzaXsA7uB00pASA8bdu2lfPPP1+++eYb73adxCUfffSR7LvvvlKtWjXz2iI4upRJe2/ce++97JARs8yZM0ceeeQRN/uL5RcAEJ7INKekHwQARJ9+Mzho0CC33n3ZsmXerTuJevSb3d69e7tZLdZ1RbCaNGkiN9xwg8yePdu7AiTqmTJlimvG26VLF/OaAgCCQxECAOBbnz595NVXX5V58+Z5t/AkislsMfjss8/K5ptvbl5LBK9y5coydOhQmTlzpjv/JLpZvny5fPfdd3LSSSdJ7dq1zesJAAiWjtut8bwfgfSF0INYB/eDIgQA5E+7du3kjjvukF9++cXdzGcGvCRa0S0GH3zwQWnZsqV5HRGOU089VSZPnuxdBRKlZP5W6e4lulRJG4lWrVrVvI4AgOBFpjmldWC/3GEAAHnTsGFDOfnkk+kTEdHoYOvXX3912wyyM0Z+HXHEEfLZZ5/JypUrvatBopQFCxbI/fffL5tttplUrFjRvIYAgHAEUYRQ6WOVLtZB/XKHAQDklfaJGDhwoLz88sve7T2JSnQWhG7Pedppp0n9+vXN64dwDBgwQF555RVZuHChdzVIVPLjjz+6Jrtt2rRh+00AKBBrPO9fKfpC6A/bB80eO2MAQOFUqlTJbeN55513MuiKUPRb+E8++cRtN1izZk3z2iEcW221lfumXXdcINHJ+++/72apsF0tABRWwZtT0pQSAJKhffv2cuWVV8oPP/zg3fKTQmbFihWugWivXr1coci6ZghH8+bN3W4L06dP964GKWR0+cXTTz8te+65p2scal0zAED+BFSEGJo+Vm6hCAEAyaF9Is444wz5/PPPXed5UrjoNqqPPvqotG3b1rxWCI8OdE8//XSZNGmSdzVIoaKFoLvuuku23nprKVOmjHm9AAD5VfDmlEHsjKEvIn0oAEAEaKO3Aw44QIYPHy5LlizxhgIk39GlMbfccgtLMQpk0KBBMnbsWO9qkHxHe6JMnDhRLrzwQhqzAkDEFLwIYR3QL3cYAEBklC1b1q2L128gdTCsOzWwjWf+oudavwG+4IILpEaNGuY1Qrh06v/bb7/NDhkFiM7C0t1JDjroIN7/ABBR1rjer/Rx/CeIppTKHQoAEDn6DeS///1v1sbnOdoPYsyYMXL00UdL1apVzWuDcPXs2VMee+wxmTdvnndVSD6yePFieeqpp6R79+7mdQEAREPBmlMG0Q+CnTEAINp0e0hdnvHxxx97wwQSdnQZzFtvvSW77747TSkLpGPHjnLjjTfKzJkzvatCws60adPksssukw4dOrjZWNZ1AQBEQ6yLEDSlBIDoq1atmvTt21ceeeQRtvHMQ3Q3gCeffFK23HJLKV++vHlNEK7GjRvLOeec4/oSkPAzYsQIOe6449zOJNb1AABEi47jrfG9PznskBFEU0qKEAAQD/rNpA6K//Of/8jkyZO9oQMJI7oE4Pbbb5cmTZqwI0CBaIPWIUOGuGUxJLwsXbpUXnjhBdl3332lTp065rUAAERPwZpTWgfyi50xACBetE/EmWeeKaNHj6ZpX0j5+eef5dJLL2UpRoHpcpgPP/zQuyok6MyYMUMefPBB2WabbZjxAwAxE+sihDsMACBWtFnigQce6HYPWLRokTekIEFk1apVMn78eDnppJPMc4/82X777eXZZ591jUJJcNHtN7///nu56qqrWH4BADFmje/9Sh8n+2gTCesgftCUEgDiS5dnbL311vLQQw+5QoQOnknpo9PT33//fdcMlKUYhdWlSxf573//K7/++qt3dUhpo9vPfvLJJ27nl+rVq5vnHQAQD3lvThlEEYJ+EAAQb1qIaNGihWvgp1OrSekzf/58eeaZZ2SnnXaiCFFgLVu2lAsuuEB+/PFH7+qQ0kRnQDz66KPuvc1SIwCIv0IUIdgZAwDg1KxZUw4++GD3Dad+00lyj37rrk0p27dvb55r5E/dunXdN/Zffvmld3VIrtH3tfY5adu2LcU1AEiIgHbIoAgBAMiN9ono37+/+6ZTv80nuWX69OlyySWXSO3atc3zjPzRZom77rqrWx5Dcs8XX3zhtt9s2rSpeZ4BAPEURHNKrSukj5VdgihCsDMGACSLfsOpfSJ0G89JkyZ5QxDiJxMmTKApZYTo+1m3kNQwy8dfFi9eLC+++KJrYlurVi3z/AIA4ivvO2ToP7YO4gdFCABIpk022cRt4zlmzBi3DpxkF23uOXLkSDnkkEPM84r823TTTeXee+91A2qKENln1qxZ8sADD7j+D+XKlTPPLQAg3vJehLAO4Jc7DAAgkbRPxP777y8ffPCBLFiwwBuakPVl4cKF7lv3fv36mecU+adbSOryGF0mQxFiw9Gi48SJE+Xyyy+XNm3amOcUAJAc1jjfr/Rxsov1w365wwAAEq1bt27y1FNPydy5c71hCllXZs+eLXfffbdssQU9k6Kifv36cuyxx8rXX39NEWIdyZyXlStXuv4PQ4YMYfkFABSJIHbISB9nw9EOltYP+6FP1h0KAJBo2idCv00eOnSoTJkyxQ1WiB09P5dddpk0a9bMPJfIv+rVq8tee+3lZvRQhFh3tAChxcYddthBKleubJ5LAEDy5G2bziCKEOyMAQDFpUGDBjJo0CD58MMPvWELWTvfffednHjiiVKlShXzHCL/tIi2zTbbuGUy2rOD/D06g+fKK6+UTp06ScWKFc3zCABIpnwWIdieEwDgmw6ud955Z7eN59KlS70hDMnk888/dzsJWOcOhdOiRQt58MEH3bf9ZM2MHj1aTjjhBGnUqJEr2FjnDwCQXDqut8b7/mSxTSdFCABArnSgstVWW8n1118vU6dO9YYyRAe4r732Gk0pI6hhw4ZyzTXXyJw5c5gN4UV3C3nppZfkoIMOov8DABSxIHbIyKoIwfacAIDS0m+XzznnHPnyyy/ZxjOd33//Xe6//37ZeuutzfOFwqlTp46ceuqpMn78eGZDpKPbb+p7tU+fPlK+fHnznAEAikPetukMogiRPgwAoMhp07/DDjtMPvroo6JfnjFt2jS54oorpG3btua5QuHo+1SXyYwYMUKWL1/uXbHii84C0fepNk9t3769ea4AAMUlb0UI6wf9cocBABS9cuXKuW9Un3/+eTfFu1jz7bffykknneQaeFrnCYWjzRZ79uwpL7/8ctEWy1asWCETJkyQ4447zi1Psc4TAKA4WeN9v9LHWX+sH/LLHQYAgDTtE7H55pvLnXfeKfPnz/eGPcWVkSNHygEHHCAVKlQwzxEKR9+frVu3loceekiWLFniXbHiiRYgPvvsM9lnn32kRo0a5jkCABSvIHbISB9n3dHtM6wf8kOfpDsUAAAl6EDvwgsvlJ9++skb/hRP3njjDdlxxx3N84LC08G3NlOdN2+ed8WKI1p0ee6556R3795svwkAMIW+TWcQRQh2xgAArEuzZs3clG9tWFks0YHeI488Il27djXPCQqvUqVKcvbZZ8uUKVOKZoeM2bNny+233y7bbrstDSgBAOuUjyIE23MCAEJVv35917Dy7bffLordCH7++We57rrrpF27dub5QOHpLIDBgwfLF198kejmlKtXr3b/c+LEia4B5WabbWaeDwAAMnR8b437/VnPNp0UIQAA+VClShUZOHCgK0QsW7bMDYySmu+//15OO+002WijjcxzgcLTmQD9+/eX4cOHy6JFi7wrl8xMmjRJzj33XGnVqpV5LgAAKCmIHTLWW4QIYntOfZLpQwEAsF5aiNCtET/++OO/vqFNYrTp38EHH0zTvwgrW7asmxUwbNiwRPeF0CUYF198MQUIAEDWQt+mM4giRPowAABkpXbt2nLMMce4afBJS6awok0pd9ppJzfQtc4BCk93yNDtU2+66SaZM2eOu25Jy2+//SY333yzbLrppu71WucBAACLNe73Y71FCOsH/HKHAQAgS40aNZIzzzzTLVtIUjJFiKeeeop+EDFx3nnnyYwZM9x1S1J0a9zHHntMtthiCylXrpz52gEAWBdr3O9X+jh2rH/sB9tzAgD80m9lu3fvLk8++aQ3ZEpGdJcFndp/yy23SMuWLc3XjmjRWTlfffWV/PHHH95VTEamTp0qRx99NEuCAAA5CWKHjPRx/h7dNsP6x35QhAAA5KJFixZuB4kkDf70tUyePNk1AdTZHtbrRrTss88+8tZbb7ltVZMU7UvSq1f6Ns94zQAAbEho23QGUYRgZwwAQC4ySzJmzZrlDZviH91+dNSoUTJo0CDX+8J63YgWnZGjyxa0f0JSogWVF154QbbcckvzNQMAsCFhFiHYnhMAUBD169eX448/XiZMmOANneIfnQmh36rvsssubicQ63UjWtq2beuaNyapGPb777/Lww8/LJ07dzZfMwAAG6LjfGv87w9FCABAhNStW1f+8Y9/yLfffusNneIfnQnx3HPPua0f2RkjHmrVqiUXXXSR66GQlOhuH/fcc4+0b9/efM0AAGxIENt0ar0hfaw1E0QRQp+cOxQAAD7ocoUhQ4bI6NGjvaFT/LN8+XL3DXS9evXM14xo+te//iU//PCDdxXjn19++UVuu+02N8vDer0AAGwIRQgAQOLoTAgtQnz55Zfe0Cn+Wbhwofz3v/91r816zYimI488Ur7++mvvKsY/WoS4/fbbZdNNNzVfLwAAGxJEEWJ1asi76WOtGf0/Wv/YD4oQAIBcaE+IE044ITE9IXR7Tu0rcOmll9KUMmb2228/+eCDDxKzU4s22aQnBACgNCJdhEgfBgAA33R3jDPOOEOmT5/uDZ3iHR3Ajh8/Xk455RSpUaOG+ZoRTf369ZPnn39eFi9e7F3NeEdn5Dz77LPsjgEAKBVr/O8HRQgAQKQ0adJELrjgAtfJPwnRfhCfffaZHH744VK1alXzNSOattlmG3nggQdk7ty53tWMd/S9+Prrr8u2225rvl4AALJhjf/9MIsQ1j/0yx0GAACfmjZtKldccYUbMCUhS5cuddtz7rrrrlK5cmXzNSOaOnToIDfccIPMmDHDu5rxzurVq+Xjjz+Wnj17mq8XAIBsWON/v9LHWTPWP/Lj3dSAvz1RAACy0aJFC7nxxhu9YVP8o1P5dQr8dtttJxUqVDBfM6Jp4403drNyJk2a5F3N+GfMmDHSu3dv8/UCAJANHe9bdQA/0sdZM9Y/8oMiBAAgV61bt3Yd/JOSBQsWyEMPPSStWrWSsmXLmq8Z0VStWjXXJHXcuHHe1Yx/vv/+ezcrx3q9AABkI/AihKQG97L+kR8UIQAAudIp8A8++KA3ZIp/tLfFzTffLOXKlTNfL6Jt4MCBidou9scff5T999/ffK0AAGQjiCKE1h3Sx/ozQRQhhqa2MJ8sAADrU6ZMGdc078knn/SGTPHPL7/8IpdddpmUL1/efM2Itt12200+/PBD72rGP5MnT5YhQ4ZI9erVzdcLAMCGUIQAACSGNm4cMGCAvPzyy96QKd5ZtWqVTJw4UU4//XRmQsTUTjvtJC+88IKsWLHCu6rxzk8//eTej7oVrhb9rNcMAMD66HjfqgP4s2YRYqj9j7JHEQIAkItatWq5rSxHjBjhDZniHd3h4/PPP3ffPFOEiKdu3bq5bTrnzZvnXdV4Z/bs2XLttde63iv0KAEA5IIiBAAgMfTb2TPOOEPGjx/vDZniHd0Z4+2335a9996bAV9MdezY0W3TOWvWLO+qxjvz58+XRx99VLp27UphDACQk16pxmYdwJ/BQ9PH+jNBFCH0SblDAQDgQ8uWLd23tHPmzPGGTPGO7ozx4osvSt++fSlCxJTOGLjkkktkypQp3lWNd5YtWybvv/++W2ZCnxIAQC4oQgAAEqN9+/ZuZwztpZCE6BT+p59+Wnr27Mn6+5hq3ry5nHfeefLDDz94VzXeWb16tetTsueee1KEAADkJIgixOrUkHfTx/oz+r9Y/8gPihAAgFzo+vukNKXU6PacOvV96623pggRU02aNEnUEiGNvi8HDRoklSpVMl8zAADrE8kiRPowAAD4ogMi/Xb2gw8+8IZK8c/cuXPl/vvvl86dO1OEiKkGDRrICSecIN988413VeMf7Qtx9tlnuwKL9ZoBANgQqw7gB0UIAEDB1a1bV4455hj58ssvvaFS/PPrr7/KnXfeKe3ataMIEVO1a9eWo446SsaMGeNd1fhn0aJFcsstt7immyzJAADkwqoD+LFGEcL6B365wwAA4MPGG28sF198sUyaNMkbKsU/v/zyi9x8883SrFkzihAxVa1aNTn00EPdVqtJydKlS12vku7du0vFihXN1w0AwPpYdQC/0sf5M9Z/9OPd1IC/PUEAADZEZwvccccdidkZQ6PbOl5zzTVu61HrNSP6dJnQfvvtJ5988ol3VeOflStXyogRI2TAgAFSpUoV83UDALA+Ou636gF+pI/zZ6z/6AdFCABALrbYYgt57rnn3AApKZkxY4ZceumlDPRiTgfrH374oXdV4x/dfWbatGly0EEHuZke1msGAGB9AitCSGpwL+s/+kERAgCQC93GUr+dTVKmT58u559/vvl6ER89evSQ9957z7uqyciyZcvkuOOOk1q1apmvGQCA9QmiCKH1h/TRSl+EGJrawnySAACsi055HzhwoIwdO9YbIiUjU6dOlbPOOst8zYiP7bffXt544w3vqiYjq1evlosuukiaN29uvmYAANaHIgQAINbq168vJ510kvzwww/eECkZ+fHHH+WUU04xXzPiY+utt5ZXXnnFu6rJiBYhtAeLLoNihwwAgF867rfqAf5QhAAAFIDuGtGyZUu5+uqrXQ+FJOW7776T448/3nzdiI+uXbvKs88+63opJCVahHjhhRdk5513lsqVK5uvGwCAdaEIAQCILS1CdOnSRR566CH5/fffvSFS/KODvC+//FKOOuoo83UjPjbbbDMZNmyY29oyKdH358iRI+WAAw6QGjVqmK8bAIB1CbIIMdT+j9mjCAEA8KNs2bLSvXt3efPNNxM3yBs9erQMGeK6PyPGtAjxyCOPyJIlS7yrG//o+1N3yDjmmGOkTp065usGAGBdKEIAAGJLZ0Lssssu8u2333rDo+Tkq6++kn/84x/m60Z8bL755vL444/LihUrvCsb/2gRYvny5XLuuedKw4YNzdcNAMC6BFSEGJo+GkUIAEB+VahQQQ4++GCZOXOmNzxKTsaNGyfHHnus+boRH9oT4n//+5/88ccf3pWNf7QIobn++utdTxbrdQMAsC69Uo3NeoA/ARUh9MlYTxIAAEvjxo3lzDPPlNmzZ7tBUZIyYcIEOfHEE83XjfjYaqutXBPHJObhhx+WbbfdVsqVK2e+dgAALBQhAACxpAOfdu3ayY033ii//fabNyxKTiZNmsQWnQmQxC06M3nttddkjz32kGrVqpmvHQAAC0UIAEAs6VKMbt26yZNPPikLFy70hkXJyZQpU+S0004zXzviQ4sQw4cP965qsjJq1Cg58sgjaU4JAPCFIgQAIJYqVqwoO++8s3z00UeuSV7SMn36dLngggtcscV6/YiHPn36yLvvvutd1WRFd8g466yz3LIo67UDAGChCAEAiKVKlSrJPvvsI5MnT5ZVq1Z5w6LkZNasWXLddddJo0aNzNeP6NP36H777Seffvqpd1WTlWXLlrn3aLNmzczXDwCAhSIEACCWatasKUcddZQsWLDAGxIlK7/++qvcfffd0r59e7cVqXUOEG26TOGf//yn2241qbn//vulQ4cO5usHAMBCEQIAEEtNmzaV888/330bm8TMmzdPnnjiCenevTtFiJjSGQJnn322TJw40buqyYvu/LHjjjtK2bJlzXMAAMDaKEIAAGKnfPny0rlzZ/nvf/8rK1as8IZDyYo229SGhrvtthsDvJjadNNN5ZprrnH9PZKa999/Xw444AB2yAAAZC2IIsTq1JB3U/r/WP/RD4oQAIBs6Fr7nj17yjPPPJPYIoQ22/z888/d7gO6Hal1HhBtunvLAw884Ga1JDW61OTEE0+U+vXrm+cAAIC1RaoIYT1BAADWVrVqVdlzzz1lxIgRsnLlSm84lLxoc8pLL73UFV2s84Bo23333d1MgSRHd8i47LLL3PIo6xwAAGCx6gF+UIQAAOSVNqU84ogj3M4Yq1ev9oZDyYs23XzwwQelTZs29IWImRo1asi//vUv+e6777yrmczosqG77rrLvUet8wAAgMWqB/hBEQIAkFe668DJJ58sS5cu9YZCyYy+vrffflt23XVXqVy5snkuEE26Y8QNN9wgM2fO9K5mcvPcc8/JZpttZp4HAAAsVj3AD4oQAIC80l0HdJmCJskzIf744w/54Ycf5Mwzz6TxX8zssssu8uqrr8qSJUu8q5ncvPfee7LTTjuZ5wEAAItVD/CDIgQAIG+0SWPXrl3dFPBiiM6GePTRR6VVq1bm+UD06Hv09NNPT/TWnCUzatQoOeSQQ6R69erm+QAAYG1WPcAPihAAgLzRZQn9+vWT559/3hsCJTurVq1yfQV0+UnDhg3Nc4Jo0VkQL774ouuXUAz5/vvv5YwzzpBGjRqZ5wMAgLVZ9QA/KEIAAPJGm1IefPDB8sknn3hDoGRHl5vosgwtumy99dbmOUF06PtTd4uYMWOGdwWTH32t1113nWyyySbmOQEAYG1WPcAPihAAgLypV6+enHDCCTJp0iRvCJTsZHpe/PTTT64PhvbDsM4LouHAAw90W8cuW7bMXbdiyLx582TYsGHSuXNn85wAALA2qx7ghytCWP/BL+vJAQBQUpMmTeSiiy4qioZ/JaPLMr799ls5++yzZaONNjLPDQpH+0AMGDBAXnvtNZk/f7531YojWih75513ZJtttjHPDQAAa7PqAX6lj2T/Bz+sJwcAQEktW7aUm2++2Rv+FFe0EDF69Gg59dRTpX79+ub5Qf6VL19eevfuLc8884wsWLDAu1rFla+++sr1arHODwAAa7PqAX6lj2T/h2y9mxpgPjkAAEracsst3dTvYs3KlStl5MiRctxxx0nt2rXNc4T80RkQPXv2lIceeqjoZkCUzI8//iiHH364VKxY0TxPAACUpON/qy7gR/pI9n/IFkUIAMCG6M4Yu+++u5vyXszRQoT2HRg0aBDbIhZY9+7d5Z577pHffvvNuzrFmenTp8s555zjlktZ5wkAgJIoQgAAYkG/+T/qqKPk888/94Y+xZvly5fLBx98IAMHDpRq1aqZ5wvh2mKLLeT222+X2bNne1elePPrr7/KrbfeKu3atZMyZcqY5wsAgAyKEACAWGjcuLFrzFgsO2NsKCtWrJD33ntP9tprL6latap5zhCOTp06yW233SY///yzdzWKOwsXLpSnn37aLZcqW7asec4AAMigCAEAiIXmzZvL9ddfX9Rr79eOzogYNWqU/Otf/5KGDRua5w3B2nnnnd2AW7/9J39GC2KffPKJ7Ljjjq5PhnXeAADIoAgBAIiFTTfdVB5++GFv2EMy+eOPP2T8+PFy9dVXS5cuXcxzh9KrVauWDBmSvmd5910KYUamTJnierbobiHW+QMAICMSRQhlPTkAADK6desmL7/8sjfkIWtn5syZ8sADD0jfvn2lQoUK5jlEbtq2beuWAo0ZM8Y1BiV/z9y5c12RhiIEAGBDrHqAX+kj2f/BD+vJAQCQsccee8iHH37oDXmIlUWLFrndQw466CCpX7++eR6RPd1ycrvttpMbbrhBpk6d6p1lYmXevHly3nnnSd26dc1zCQBAhlUP8Cu1OjXkXes/+GE9OQAAVL169eT4449330STDeerr76Sk046SZo1a2aeT2yYNvvcdddd5cknn3SNF8n6owUwbdbZuXNn+kIAANbLqgf4ofUHihAAgFA1bdpULrnkEpk8ebI35CEbyqxZs9w3+JttthnLM3zQAbQWvY499lgZOXIkyy+yzNKlS+X555+X7t27uxkk1rkFAEBZ9QA/KEIAAELXrl07ufPOO+W3337zhjxkfVm9erWzbNky10hx0KBBUqdOHfPc4v9pP4Ott95a7rvvPrf95qpVq7wzSjYU3SHjs88+kwEDBkjlypXN8wsAgLLqAX5QhAAAhK5Tp07yxBNPuG9bib/oN/naz+Cee+5x/Q2s84uUK9KcfvrpbsvTxYsXuyIOyT66S8uECRNk3333dUtZrHMMAICy6gF+UIQAAISua9eu8tJLLzEwLEW0ceD7778vp5xyilveYp3nYqTf2u+2227y4IMPyk8//cTshxyjv5u6BOiQQw6RatWqmecaAABl1QP8oAgBAAidTpHXZQWk9NG+GnfffbebNl/sg0VtonjOOefIiBEjmGUTQLQ5pW7TSRECALA+Vj3AD4oQAIDQ7bDDDvLpp596Qx1S2ixfvlzee+89Ofnkk6VDhw5StmxZ87wnVYMGDWSvvfaShx56SGbOnOmdFVLa6NIf3cWmdu3a5nkHAEBZ9QA/KEIAAEKn39rrWn0SbGbPni333nuvO786ME96MaJ69eput5CzzjpLxo4d650FElS0L8SZZ54p9evXN88/AADKqgf4EVgRoleqsfkEAQDYb7/95Ouvv/aGOiTo6BKNG2+8Ubp16+aaCpYpU8a8DnGlu140b95c/vGPf8iHH37ItpshRYsQupWuFrSs6wAAgI77rXqAHxQhAAChqlWrlhx11FEybtw4b6hDgkym2adusTh+/Hg3iNQtUcuVK2dej7jRpQGHHnqovPbaa7Jw4UL3WvU10+Q0+GgR4vrrr5f27dsX3RIfAEB2gihCSGrw0PTRBg+1/2P2KEIAACw6tVt7F0ycONEb6pCwooPIBQsWyMiRI+W0006TFi1amNckDipVqiR77rmn/O9//3N9H5j9EH50Z5E777xTtthii8QUsQAAwaIIAQCIvI022kguuOACmTp1qjfUIWFHixEzZsyQl19+WY455hhp2LCheW2iqlevXnLXXXfJt99+K4sXL/ZeFQk7WoR47LHHpHv37lKxYkXz2gAAihtFCABA5Om38VdffbVMnz7dG+qQfEWLEbpE4/7775fDDz/c9VWwrlEU1KhRQ3r37i2XXnqpfPDBBzJ//nzvVZB8RYsQL774ovTp00cqV65sXicAQHGjCAEAiLxNNtlErrvuOvfNPClcvv/+e7n99tvl4IMPlrZt20Zmur0u19FBr86Weeedd/7q+0DyHy1C6OyZnXfemSIEAMBEEQIAEHlNmzZ1325PmzbNG+qQQuann36SO+64Q/bdd19XICrEYFN379AdGHr06CHnnHOO62FBz4fCR4sQ2oNjhx12cD05rGsHAChuFCEAAJHXqFEjOfPMM+XHH3/0hjokCpk7d65b/6/FiCZNmuSlB4DuuKC7pehWohdffLFbKkKiEy1C6NKdrbfe2m2Lal1DAEBxowgBAIi8unXrynHHHceAM6LR3guvv/66HHbYYW52QlhbM+qMi549e8rNN98sU6ZM8R6dRCnaQ+TWW2+Vzp07szsGAMBEEQIAEHnVq1d3TRG/+eYbb6hDopYVK1a4mRHvv/++nHDCCYE2sNTiw6677iqPPPKITJ48WZYuXeq+cSfRixYhtIms9gzRJTPW9QQAFLehqS3MeoA/ARUh9MlYTxIAUNx0mr9O+R8zZow31CFRjRYjtIHoW2+95Xo1dOnSxbym2ahXr54ceOCB8uijj8p3330nixYt8h6FRDVahLjwwgtdHxfrmgIAEGQRopf9H7NHEQIAsC79+vWTL774whvqkDhEt1R99dVX3a4VuoyiSpUq5rVdm36LfuSRR7reAl9//bUsW7bMOyKJenSGymmnneYKSNa1BQCAIgQAIBZ0F4SPPvrIG+qQOEWXaQwfPtx9Q67LKpo1a/a361uzZk3ZZptt5Nhjj5UHH3yQ/h8xjRaMjjnmGLeEau1rDACACqgI0St9NIoQAIDwdOzY0fUEWLx4sTfcIXGMzmy47rrrZI899pD27dtLq1atpHv37nLyySe7QoU2uSTxjM6CGDdunOy9995Zz3oBABQfihAAgFjQbRmHDBkin3/+uTfkIXHO7Nmz5Y033pAnnnjCDVxJ/KMFpOuvv17atWvHzhgAgHWKVBHi3dQA80kCAKA23XRTuffee13zO0JIdLJ69WrXPHT33XeX8uXLm7+/AAAoihAAgNjQ2RCDBw+Wzz77zBv6EEKiEO37cdNNN0nr1q3ZmhMAsF467rfqAf4M7pU+lh7R+o/ZowgBANgQ7SEwdOhQmTNnjjf8IYQUMrotq/bz6NWrl1SoUMH8vQUAICOIIkT6OH/G+o9+UIQAAGyIfsu65ZZbyl133SXLly/3hkGEkELl008/lcMPP5wdMQAAWYlUEUK5wwAAsB6VKlVy37q+9tpr9IcgpIDRrVTPOOMMadCggfm7CgDA2qw6gF/p4/yZ1akh71r/wI/0YQAA2CD91nXgwIEyZswYtzUgISQ/0SaUGl0SdeWVV7o+ENbvKAAAFqsO4IfWHdLH+TMUIQAA+VS/fn058cQTZdKkSW5QRAjJT1auXCl33nmndOvWTcqWLWv+fgIAYLHqAH4EXoTolWpsPlEAACzNmzeXyy67TH766SdveEQICTO6BOqZZ55xS6J0aZT1ewkAgEXH+1YdwA+KEACAgmvZsqVceumlMm3aNG+YRAgJI1qAeO6552THHXeUKlWqmL+PAACsSxBFCEkNHpo+1p/R/8X+R9mjCAEAyEWbNm3koosuksmTJ3vDJUJIkFm6dKk8++yz0rt3bwoQAICcUIQAACRKu3bt5OKLL5YpU6Z4wyZCSBBZsmSJK0D07dtXKleubP7+AQCwIUNTW5h1AH/WLEL0sv9R9vRJuUMBAJCDTCFi6tSp3vCJEFKaLF682PWA2GWXXaRixYrm7x0AANmgCAEASKRWrVq5HhE0qySkdNEZEFqAGDBggFSoUMH8fQMAIFsBFSF6pY/1Z4IoQrybGmA+WQAA/GjRooVcccUVMn36dG84RQjxE92G8+mnn5Z+/fpRgAAABIIiBAAg0XT7Ti1EMCOCEH9ZtWqVmwGhTSjZhhMAEBQd71t1AH9KFCE09j/KHkUIAECQdPvOoUOH0iOCkCyjMyD+97//sQ0nACBwQRQh0sdZM9Y/8oMiBAAgaNoj4sILL5RJkyZ5wyxCiJVly5a5AsROO+1EAQIAELhIFiGUOwwAAAFq27atXHDBBRQiCFkrq1evdv9Td8HQAkSfPn1YggEACIU1/vcrfZw1szo15F3rH/qRPgwAAIHTQoTOiJgyZYobdBFC/syiRYtcAYImlACAMFnjfz+03pA+zpqhCAEAiLLWrVvLxRdfLNOmTfOGX4QUd3QbTi1A9O/fnwIEACBU1vjfj9CKEL1Sjc0nDABAELRZ5aWXXsquGaRok1mCsXz5cnnqqaekb9++FCAAAKHScb41/veDIgQAILaaNm1Ks0pSlClZgHj00UelZ8+eFCAAAKELogghqcFD08daM/p/tP9x9ihCAADyoWHDhnL88cfLmDFj3KCMkGKJ9oC45ZZbZPPNN5eKFSuavx8AAASJIgQAAGl169aVQw89VN577z1veEZIsjNr1iy5/PLLpV27dlK+fHnz9wIAgKANTW1hjv/9sYsQvex/nD19cu5QAADkQa1atWSfffaRl156SVatWuUN1QhJXr777js599xzpUWLFlKmTBnz9wEAgDBEugjxbmqA+aQBAAhL1apV3e4AukvAwoULvSEbIcmI9oH44osv5JRTTpEmTZqYvwMAAIQpoCJEr/Sx1gxFCABAXOnU9G233dY165s9e7Y3fCMk3tEGlB999JEcddRRUqdOHfO9DwBA2HScb43//TGKEBr7H2ePIgQAoJA6deokd911l8yYMcMbxhESzyxdulTeeust2XfffaVKlSrm+x0AgHwIogiRPo4d6x/75Q4DAECBNG/eXK688kqZMmWKG8xltjUkJOrJvFe1APHcc8/JTjvtxA4YAICCs8b9fqWPY2d1asi71g/4kT4MAAAFpWvnTz31VPnmm2/coI6QuGTBggVy7733SteuXaVChQrm+xsAgHyyxv1+aJ0hfRw7QRQh2KYTABAFDRs2lMGDB7s19YTEIboF57XXXisdOnRgC04AQCTo+N4a9/ux3iKEbpth/ZAfFCEAAFFRt25dGThwoLz22mveMI+QaOb777+XCy+8UNq0acMWnACAyAhte85MgihC6JN0hwIAIAKqV68uAwYMkBdeeEGWLFniDfkIiU5Gjx4tp512mjRr1sx8DwMAUCj5KEKwTScAIHF0bX2PHj3kqaeekrlz53pDP0IKmxUrVsjIkSPl6KOPlgYNGpjvXQAACimgIoS9PaeGIgQAIMm02d8DDzwgP//8szcMJKQwWbx4setXst9++7nZOtb7FQCAQgtie871FiE09g9ljyIEACDK2rZtKzfccINMnz7dGw4Skt8sXLhQhg8fLn369KEBJQAg0qwxv1/p46w/1g/55Q4DAEBE6dr7s846SyZMmOANCwnJT+bPny/Dhg2Tbt26Sbly5cz3JwAAUWGN9/1KH2f9YZtOAEAxaNKkiVuL//nnn3vDQ0LCzcyZM90snC5dulCAAADEgjXe92O923NmQhECAFAs6tWrJ/vvv7+bGr9q1SpvqEhI8Bk3bpyce+650q5dO7bgBADEgo7rrfG+H1kVIXT7DOuH/aAIAQCIi2rVqkm/fv3kiSeekHnz5nlDRkKCyyeffCJHHnmkNGrUyHwPAgAQRaFvz5lJEEUIfbLuUAAAxIB+M73lllvKXXfdJTNmzPCGjoSULosWLZI333xTDjzwQKlcubL53gMAIKryWYRgm04AQFFq3bq1XH311TJx4kSWZ5BSZc6cOfLcc8/JTjvtxA4YAIBYCqgIsf7tOTUUIQAAxax+/fpy4oknypgxY2T16tVuQJn5n4Rkk1mzZrlZNZ06dTLfYwAAxIGO663xvj9ZFCE09g9njyIEACDOatSoIXvvvbe88cYb3rCSkOyi276ef/75bhtY670FAEBcWGN9v9LHyS7WD/vlDgMAQExVrVpVevbsKQ8++KAsXbrUG2ISsu58/PHHrgFlw4YNzfcUAABxYo3z/UofJ7uwTScAACmpWLGibLbZZvKf//xHZs6c6Q01CVkzf/zxhzz//PNu9kzt2rXN9xIAAHGSt+05M6EIAQDA/9OGlRdeeKF888033rCTkD/z22+/udkyO+ywg1SqVMl8/wAAEDdBFCGy2hkjE/3H9kGyRxECAJAkOsVeG1aOGDFCVqxY4Q1BSTFnypQp8t///tfNlrHeMwAAxFXetufMJIgdMvRJu0MBAJAQ1atXl4MOOkiGDx8uixcvdgNRds4ovuj2rd99951ccskl0rx5c/O9AgBAnMWyCMEOGQCAJCpfvrxrWPnwww/LokWLXBGCQkTxRAsQn332mRx77LFSp04d8z0CAEDcBVSEyG57Tg1FCAAA1q1cuXLSvn17ueaaa2TOnDne8JQkPdqA8uWXX5a99tpLqlSpYr43AABIAh3PW+N8f3wUITT2QfxxhwEAIIG0ELHxxhvLaaedJhMmTPCGqSSp0eU3d999t/To0YMGlACAxLPG936lj+Mv7JABAMCG6ZT8I488Uj766CNZuXKlN2QlScr06dPlyiuvlI4dO7rik/U+AAAgKYLZGYMiBAAAoalRo4bst99+8txzz8nChQu9oStJQr7++ms566yzpFWrVua1BwAgaYLoB6H1hPSx/EU7WVoH84MdMgAAxaJChQrSu3dvuf/+++WXX37xhrAkrlm2bJmb3XLcccdJ/fr1zWsOAEAS5X1njExoTgkAgH+dO3eWa6+9VqZNm+YaGZL4ZcGCBfLSSy/JwIEDpXLlyuZ1BgAgqQJqSkkRAgCAfGnYsKGcdNJJMm7cOFm+fLk3tCVRj261qrud3HPPPbLtttua1xYAgKSzxvb++dwZIxP7YP64wwAAUGSqVq0qe++9t7z77ruyZMkSb5hLopzJkyfLOeecI5tssol5TQEAKAbWuN6v9HFyC80pAQDInfaJ2GabbeTee+9137CTaEZnQGj/h4MPPpj+DwCAohbEzhg5NaXMhCIEAAClo1s66taOF198sYwfP94b9pKoRHczeeKJJ6Rfv35Ss2ZN8xoCAFAsCtaUMhP9Yfug2aMvBAAAKWncuLEMGTJEPvzwQ1m1apU3BCaFzNSpU+WGG25wzUR11op13QAAKCZRKELQnBIAgIBUqlTJ9Yl44YUXZN68ed5QmOQ7umvJmDFj5LzzzpMWLVqY1woAgGIU0M4YuTWl1ARRhFDuUAAAFLEyZcr89f/v3r27PPjggzJjxgzXj4DkL9ok9L333pMjjzxS6tSps8Y1AgCg2Fnjeb/SxyldrIP6RV8IAADWpN/AX3755fLDDz+wPCMP0WKP9n946qmnpE+fPiy/AADAYI3n/Uofp3ShOSUAAOGoVauWHHXUUfLJJ594Q2USRrQAMXv2bLnuuuukffv2rlmodT0AAChmQfSDKNXOGJkEUYTQF5M+FAAAWEuVKlWkf//+bocGXSpAgo0WIMaOHSsnnniiNGnShAIEAADrUPCmlJnQnBIAgHCVL19eunbt6r6pnzlzpjd8JqXNsmXL5JVXXpH999+f7TcBANgAihAAABSZtm3byplnnul2biCly88//yz33nuv6/+gs02s8w0AAP5fwXfGKBn74P64wwAAgPVq0KCBDB48WN555x1ZvHixN6QmfvL999/LFVdcIVtswXJQAACyZY3j/UofJ5jQnBIAgPzRnRv69esnTz/9tMyZM8cbWpMNZenSpTJ69Gj517/+JRtttJF5bgEAwN/peN0ax/uVPlYwoQgBAED+denSRW699VaZNm2aa7BI1p358+fL22+/Lfvss4+ULVvWPJ8AAMAWmX4QmejB7AfJHn0hAADwT3d0OOWUU+Sbb75xg20tRlCQ+DOZ86CzRR588EHp1q2beQ4BAMD6RbEIQXNKAAAKpE6dOu4b/tdee40CxFrR/g8XXHCBtGrVSsqUKWOePwAAsH4BNaWMVhFCuUMBAADfqlatKj169JB77rlH5s2b5w3Bizvvv/++DBkyRBo3ZsknAAClYY3f/UofJ9hYD+KXOwwAAMhJuXLlpFOnTm7nhwkTJnhD8eLLggUL5Mknn5Tdd99datasaZ4rAACQPWv87lf6OMGG5pQAAERD06ZN5dRTT5URI0bIihUrvKF5cWTq1Kly2223yXbbbSfly5c3zw8AAMheEP0gtF6QPlawCaIIoS8ufSgAAFBK1atXl0MOOUReffVVWbhwoTdET25Wrlwp48aNk6FDh7r+D9Y5AQAA/kWuKWUmNKcEACBadCvK7bffXu69916ZO3eurFq1yhuyJyvLli2Tjz/+WI4++mipVauWeS4AAEBuIteUMhOaUwIAEE0NGzZ0MwSmTZsmf/zxhzd0T0Z0lsezzz4rvXv3Nl87AAAoHWvc7t/gXuljBR/7wfyhLwQAAMGrXbu2DBo0SD7//PPEzIj4+eef5brrrpPOnTubrxkAAJSOjs+tcbtf6WOFE5pTAgAQXTVq1JABAwbIM888I4sWLfKG8vHMmDFj5KSTTpJNNtnEfK0AAKD0ItuUMpMgihD0hQAAIDwVK1Z0O0fccsstbnlG3KL9H4YPHy4HHXSQW2ZivUYAABCMyDalzIS+EAAAxEP79u3lggsukK+//lpWr17tDfGjnV9++UUeffRR6devn1SuXNl8XQAAIDjWeN2/EIsQGvtB/WFJBgAA4dOZBLqjxAcffCCLFy/2hvrRi/awmDhxotx0002y+eabm68FAAAEzxqv+5U+TrihLwQAAPFRoUIF6d+/vzz//PMyb948b9hf+GRmZ6xcuVK+/PJLOeOMM2SjjTYyXwMAAAheMEsxYlKEoC8EAAD5U7ZsWenUqZPcdtttbsmDppBLNPSxlRYg3njjDdlvv/2kevXq5nMHAADhiHw/iEyC6AtBEQIAgPzSQkSTJk3k9NNPl7Fjx3rlgMJlwYIFcvfdd8s222wjlSpVMp8zAAAIjzVW9y8mRQjlDgUAAPKqdu3abubByy+/7HaiKEQmTJgg55xzjrRu3VrKlStnPk8AABAua5zu3+Be6WOFH/vB/aEvBAAAhaE7T+y0005y++23y8yZM73SQPjRosfbb78tQ4YMkUaNGpnPDQAAhC82/SAyoS8EAADx17FjR7eNZz6WZ2gvimHDhsluu+0mVapUMZ8PAADIj9j0g8hEH8x+EtmjCAEAQOHVq1fPzUz46KOPZOHChV7JILjo9ps//vijXH311Wy/CQBAROh43Bqn+5PfIgR9IQAASJB+/frJ008/Lb/++mtgO2csXbpURo8eLSeeeKLUrVvXfFwAAJB/1vjcvzz1g8jEfhL+0BcCAIDoaNeunVx33XUyZcoUV0TIpRiR+ZlFixbJq6++KgMGDGD3CwAAIkTH4db43K/0sfKbIPpC6DqU9KEAAEBENGjQQP7xj3/IJ5984ooJuWTWrFly0003SadOnaRixYrm4wAAgMIIoh+E1gPSx8pvaE4JAEAy1ahRQ/r37y+PP/64LFmyxCstZJdRo0bJKaecIhtvvDHbbwIAEEGxa0qZCX0hAABIrgoVKsiWW24p1157rUydOtUrMaw7ixcvlueff172228/qV27tnlMAABQeNa43L8CFCE09pPxh74QAABEV8uWLeX000+Xzz77TFasWOGVHNbMTz/9JLfddpvstNNOrnhhHQcAABRebPtBZBLEkgyKEAAARJsuzzj00ENdo8nff//dKz2IK0p8++23ctFFF7mmltbPAgCA6AhmKUbMixD0hQAAIB569uwp9913n5v5MGfOHPnoo49k8ODBUqtWLfPfAwCAaIltP4hMgugLQRECAID4aNOmjZxxxhlyyy23SN++fc1/AwAAoskak/sX8yKEYkkGAAAAAADhssbj/g3ulT5W4WI/KX8oQgAAAAAAEJ7Y94PIhL4QAAAAAABEW+z7QWSiT8J+cv64QwEAAAAAgMBZ43D/olGEoC8EAAAAAAARpeNtaxzuX4H7QWRiPzl/WJIBAAAAAEDwEtMPIhP6QgAAAAAAEE063rbG4f5EYClGJizJAAAAAAAgmqzxt38RKkJo7CfpD0UIAAAAAACCk7ilGJmwJAMAAAAAgGgJogih4/30saIVnZphPVm/3KEAAAAAAECpWeNu/yK2FENDXwgAAAAAAKIjcVtzrh37yfrDkgwAAAAAAEovsf0gMqEvBAAAAAAA0ZC4rTnXDksyAAAAAACIBmu87V+EixAa+0n7QxECAAAAAIDcJX4pRiYsyQAAAAAAoLASuzXn2tGpGtaT98sdCgAAAAAA+GaNs/2L+FIMDX0hAAAAAAAonMRvzbl27CfvD0syAAAAAADwr2j6QWRCXwgAAAAAAAoj8Vtzrh2WZAAAAAAAUBjW+No/ihAAAAAAAGA9im4pRiYsyQAAAAAAIL+KZmvOtRNEEUKlDwUAAAAAALJgjav9i9FSjExYkgEAAAAAQP4EtRRDx/Pp48Uv9ovxhyUZAAAAAABsWNH2g8iEJRkAAAAAAOSHNZ72L4ZLMTJhSQYAAAAAAOELcClGfIsQGvtF+cOSDAAAAAAA1q3ol2JkwpIMAAAAAADCZY2j/Yv5LAgNSzIAAAAAAAgPSzHWiv3i/GFJBgAAAAAAf8dSjLXCkgwAAAAAAMJhjZ/9S8gsCA1LMgAAAAAACB5LMdYR+0X6w5IMAAAAAAD+H0sx1hGWZAAAAAAAECxr3OxfwmZBaFiSAQAAAABAcFiKsYHYL9YflmQAAAAAAMBSjA2GJRkAAAAAAATDGi/7l9BZEBqWZAAAAAAAUHosxcgy9ov2hyUZAAAAAIBixlKMLMOSDAAAAAAASscaJ/uX8FkQGpZkAAAAAACQO5Zi+Iz94v1hSQYAAAAAoBixFMNnglqSwWwIAAAAAECxscbH/hXJLAgNSzIAAAAAAPCPpRg5xj4J/rAkA4i/C1Oby8XpP6RhaJOqaT4mkCSHpFqZ7/8g7Jpqaj4mAAAoHB0HW+Njv9LHKq6wJAOA+jS1u/m7HYTdGEChCNyW2s58/wfhotTm5mMCAIDCsT6z/SuyWRCaoJZkMBsCiDeKEEDpUIQAAKB4sBSjlLFPhn/uUABiiSIEUDoUIQAAKB7W53Uu0scqzrAkAwBFCKB0KEIAAFAcmAURQFiSAYAiBFA6FCEAACgOFCECin1S/GM2BBBPFCGA0qEIAQBAcbA+q3ORPlZxJ6glGVoVSh8OQMxQhABKhyIEAADJxyyIAMOSDKC4UYQASociBAAAyWd9TucifSyioUElULwoQgClQxECAIBkYxZECGE2BFC8KEIApUMRAgCAZKMIEVLsk+QfsyGAeKEIAZQORQgAAJLN+ozORfpYpGRoUAkUJ4oQQOlQhAAAILmYBRFiWJIBFCeKEEDpUIQAACC5rM/n3AzulT4eWTs0qASKD0UIoHQoQgAAkExBzYLQcXb6eMQKsyGA4kMRAigdihAAACQTSzHyFPuk+ecOBSDyKEIApUMRAgCAZLI+m3ORPhZZX1iSARQXihBA6VCEAAAgeZgFkcewJAMoLhQhgNKhCAEAQPJYn8u5oSFlVmE2BFA8KEIApUMRAgCAZKEhZQHCbAigeFCEAEqHIgQAAMnCUowCxT6J/rlDAYgsihBA6VCEAAAgWazP5Fykj0X8hCUZQHGgCAGUDkUIAACSg1kQBQxLMoDiQBECKB2KEAAAJIeOX63PZP8oQuQUZkMAyUcRAigdihAAACRDcLMgWIqRc5gNAeRPpVRZ6ZiqLd1S9WXHVCMZkNpYBqZayP6plrJ7ejDfJ9VEtks1kM1TdaVFqrqUMY6Ri2IpQjRJVXHnrnv6HO6cPpd7pprJwalNZK/0/+yb2kh6pBrKFun/3ixVzfx5JE+dVEXpkP6d2zb9ntD3wB7p94L+7un7oFWqhvkzliQWIRqmKkun9LnZKdXY/Q3Svz/tU7WkVqqC+e+LVb1UJWmTqinbpP9u75L+m31Q+m+Kvo96p8/b1un/m/5NL5cqY/5s3DRK/w3V19o1Vc+9L/R1Hph+vfpZpX8/9f2ifz9rpX+vrJ+Pqwbp34VN0p+5XVJ10p8fDaV/+m+FfjbrZ8f26f9dfy/038TpOuvfPr1W+v7U967+fu+Vai77pV+XfnGor3XjVFWpnCpn/jyQZCzFiEjsk+ofsyGA/1c/feN6YPrG/qrUVvJ8qo98nxpo/t6sz+q0Kan95f3UrvJIagc5O9XF3QT7vQFMYhFCizXnpzaTYakd5bPUHjIvdaj5/Nbl9/S//zi1m9yT6iGnpTrJlumbbutxEC9VU+XlH6l26eu6vYxN7W1e+5JmpA6UJ1I7yYmpDlIt/bPWMVUSihA6iLws1VVeSfWVWamDzOeSsTB1mHyQ/rujvxst04Mz63hJ1DQ9KDs5/V64I9Vd3ksNkF9SB5vnx/Jtah/5X6qXXJy+udW/T9bxo0AH03q/9s/078m1qW7yXPrz6Zv0c1+eGmS+rvXRz7XH078//051doVfHfhajxkl7VI1XSHp6vRn8+up/jLbxzVWv6U/Oyam9nOfH3em3ycnpNq7Iqf1WPnSOFVFdk1/Fp+X/kzU9+AP6ednPfd1WZQ6XKamDpDRqb3k0fRnaq73GkBcWL8HuUgfi5QmQS3JYDYEip3e2GnRYWR6UGz9jgTpk9Tucm76hsN6HmtLQhFCZ4UcnWrrBoy/+rxpzJYOzPQGTB9nfQPSIA1P9TOfSxAOTbUyH3N9rOMExXq8oOi3fPeltpdlOQykMvRG/Lr0oEy/EV37+HEtQtRIVZDTU51kVGpP87GzpQWJvVPNzcew/n1QrMcLWvX0OdLCVdC/izPTf08eSPV0g3PrcfOlbXrQfVT6b9q96d8PLZRYzzVIY9ID2ZNTHd17z3o+haAzAfSz+bvUvuZzDooO/p9K9XK/czqDxnouQdHi4Knp86xfUljPJSg/pz9v30j1l0tTXVl+iURgFkSEEtSSDOUOBxQRvdE6KdWh1Df5ueqX2sh8XiXFuQjRIVXLDQznpg4xHz8sS1JHuIHnViHPkAizCKFLUazHXB/rOEGxHq+0dPnN06ne5uPlaln62usgquTjxLEIod9m6owf6zFzdXNq2789jvXvgrL2YwWpeaqaXJMemGrxyXrsIOlAUb99t55H0Cqkysq+qRauKDcptb/5fPJhRWqQmylQyFkCF6R/t8aHXHhYl1z+/mZDjxt24WFdnkylhwvGcwLixHpv54YiRCAJajaEVpfShwMSr0qqXPoGtpu70bJ+F/JF1+paz6+kOBYhuqYHlzrrwXrMfNNCgX6TZj3P0gqzCJHLoMc6TlCsxyuNG1PbmI8TFL02Nb1vc+NUhDgg1dJNrbYeKwg6dV+XdmQez/o3QSn5uoKifQ/uTvUwHy9sOmNU+0hYz6u0dPq8LtvLZVlF2HRGSJU8zS5T+revUMWHjFxmoq2PLhl8KdXXfKx80aUe1nMD4oKGlBEMsyGA7B2b2nSDa6rzRRtaWs+xpDgVIXTqsE4bth6r0HTQWz3gG+kwixA6GLUec32s4wTFerxc6OyHESG+p0vSGU7awDIuRYj/pLY2HyNo01IHuJkE+pjWfw/K2q+vtIak2sicPM+qslyS6mo+v1wNSrU2HydKJqQGuuaw1vMPii6lejG1s/n4+XZ4+ppYzzEXN+Tp93pDnkn1Np8fEBfW+zo3zIIINPZJ9o8GlUiq1unBSKGmQa6Ldu+2nmtJcSlCaC8G6zGi5OfUQbLPOtbG5yLMIoTueGA95vpYxwmK9Xh+DU4PIlelBpvHD8urqb6RL0LojI0P8/y3SXvf6GNb/y0oa7/OXNVNVXJTya3HKBT9VjmoHZDiUITI0Mad1msoLd3twW9DxjDpNbGep1/6PrGOXwjaxNR6jkAcMAsiwqFBJbBuOtiPwjdoa9s3iwFxHIoQYU+tD5quNbZeh19hFiF0iznrMdfHOk5QrMfzQ9dCW8fNhzAb+pW2CFEpVc597lrHDtuzAffjWJv1ev3SLQq/ymKnlELQHTh0eYj1vP2IUxFCacHZeh250t1IojI7MUNn3VjPNVv6e/1qiJ8PuXghtbP5XIE4sN7TuWEWROAJckkGsyGQJOekupjv8yjYP4uBZpSLELrv+msRu9HKlvassF6TH2EWIbIpUK3NOk5QrMfLlr4W65hJUNoiRJjvoUKzXq8fujNFWLvpBEV3OiqfKms+/2zFrQihgtrGtHOqtttS1nqMQtIdSaznmy3dkcY6biG9RBECMcUsiBiE2RDAmqJcgFDZTLmPahEizgWIjNI26gpzAJnLshHrOEGxHi8b2idkcR52MCiU0hQhdPcB65hJYb3mbO2QamQeM4p0W0frNWQrjkUI3S4z0/i1NN5M9TePX2ilKULokhXrmIX2Sqqv+XyBqGNbzhiE2RDA/9O9vq33dpTEtQiRhAJExqOpHc3XmI0wixDZ9AtZm3WcoFiPl43XIzrICEquRYg49FApLet1Z0ObZoa5Q0gYrk9tbb6WbMSxCKFuNbZ89eOsVGfzuFGQaxFCd56xjhcF+pltPWcgyoKcBUERIuQwGwKIzw1+XIsQUd0BI1c353gzHWYRYs8EFCEuTA/QrWMlSS5FiM1SdWRlnht0FoL12rMRxans2eheYutTP+JahNAtrmunKpqvaUPapWqax4yKXIsQn6X2MI8XBfp5ZT1nIMqYBRGjMBsCxU5vbpamjjDf01ETxyLEETG9Yd6QXBpBhjkbJO5FiDYRH2QEJZcixOOpncxjJY312jckX9uUhuGdHL+8iWsRQp2d6mK+pg3R5sDW8aIilyKE9smwjhUVb6T6m88biDLrvZwbihB5CbMhUMziNP07bkWIZqlq8nvqUPNYcTc9daDUS1UyX/e66PaP1rGCEPcixEOpnuZxksZvEUKL+9Zxksh6/evTM0Z9INblyBwGr3EuQkxK7We+pg35OqI7nmTkUoS4IeK7RL2V2sV83kBU0ZAyhglyNoQ7HBAT56c2M9/HURW3IkTSlmGs7Z5UD/N1r4s2+rKOE4Q4FyF2TMBgMlt+ixD6baR1nKRZnWa9/vX5KLWbeawg6Dat96X/fl2e2lIeTu0g36cGmv+utPTvtfXa1qe0RYhlqSNcEXVMai830NRp9+NT+7r/u/Xvg3ZYqpX5utYlHzMGdFeVselrPjp9Tmakz43f5U+5FCH0caxjBWV+6jCZkH7f6ntscmp/3w1/36YIgZix3se5YRZEXmNfBP+0CuUOB0RchVTZ9I3HIeb7OKriVITokqpjHiNpOqRqma/f8hJFCNOTqV7mMZLITxFi+wg3rQvaqvSgzzoH66IzCKzjlJbO3DpgHX9n+6Y2CuUb+X7p41qPty7ZvnY9p1+k9nTFlJNSHVyxr9YGejI0SVWVU1Md3eDVOmYQdJcX67HX5YwQm0Z/nNpNNk/VNR9XZ/LtnWoul6S6ur/d89azNajfIkSnVG3zOEHQZX+7pDY2H1evf+9UE3dOtcnyj6n9zGMoihCIE2ZBxDha9bEuRC7c4YCI+3eEO22vS5yKEPrtoXWMpPEzG+LF1M7mMYIQ1yKE7mxg/XxS+SlC3JV+b1nHSCK/RYgwZkHobAwt/FiPl1E3VUk+Cfhv7NOp3uZjrcs/U+3M42Q8l+rjevFUS5U3fz5bh6ZayR8hNETV2QbW463LjSEtW8il54EO4K9KbSWjUnuucSy/RQgtEpT8+aBoUcV6vPXRLwzOTN8PrT3riiIE4qTke7d0mAVRkNgXwz8aVCIOwp4KuS4j0jewOri4NtXNLQfRbySuS///h6V2dP/N+pmMuBQhNk3VMn8+DLNTB7up0lembwyfSd/MX5Ha0i0DmRjiN3lra5uqaZ6Htb1AEeJv8rlH/k+pA9K/e93d79zJqQ5yTfo982V6QGT927BkW4SokionS/LYMPf59MD1mvTfIf0WXP82hdm/xKKDXes8WHqGNEPkxPR7wnq8tW0b8PKARanDzcdZl+NSm/7tGLqsQgfCue4+sS76e7L2YwXBT4HkfyHNlNoyVc98vGzprjX6eaPH8luECGtHrnNybPyZ0SBV2f0e6P0RRQjEBbMgEhAaVKJYDE61Md+7YdC1pQ+kesrOqSZSKT2wsJ5PSZXT/6ZP+t/qWuQpa+19H5ciRD72c9cB5eEbWFvcO9U41PORke2Nnw70rJ8PQlyLEFNS+5s/H6SF6UHe+gYJ/VMb5W2rvGyLEEfm6W+UTsnW2SjWc9Cp+Tp13vq5oK1MDTKfg+X+EJqYatHSeqx10dkG1nFytes6ps9b/pVq/9fPafHBz8/mouTjBUX/NluPZQl65knGkPTvmPV4+RDkoKkk3UnHerxc1E9VNv/vQNRYvwu5YRZEwRJkg0pmQyDKgr6BXBf91rV6qoL5HLKla1IzO3jEpQihU0Ktnw+KToWt4+Mbv/+lepvHCYoOYK3HXVuY77s4FiHa52HGzNTUAdIyVd18/LWFOVMlI9sixEN5WM6kM7Gsx16bfjNq/XyQVvgoQmgTQesYpXFMqp35WOsS9A4VN6e2NR/Hckqqo/tbor8/1n8PmvYRsJ5zafjZqlObhFrHKC1tzNkkVcV8zLBdH+LWsnv4WDYJxB2zIBIUZkMg6WqmKpjv2aDplFnr8XOl30bFoQixSXrAZ/1sUBamDpMWWQ4qSxoX0o1shjYasx63pGdDLIbEsQjxjw2sbQ+Cn6Z/ZVJl1tuoLQjZFiGmrTULKmi3+hj0qptC3k5weZZFiDB2UvGzFCRDl2BZx8qV9riwHicK9O+t9ZxLQ4ts1mNZwixqj0vt63spRRAuTP8dsJ5PUC5LdXUzmazHBpIkuCIEsyAKHmZDIOnysRQj27XFYSh0ESLsPey1y7v1uBtySKqVebygZPO8tGeF9bNBiGMRIuxv+7XXivW463N4yO/fbIoQnUPeWebn1EFSMVXWfOx1aZ2qYR4rKLo9pPW4a8uswQ+SDkStx1qfMmnaTNM6Xi60t431OPmgswF2TN+vaVFQ+4Lo3ymdJaAFX+u5BkFncljPxfJyHvqTzEr/TmgvFG3SaD2HoOnnhfU8gqa9pta1UwYQd8Eua6IIEYkwGwJJdnfIHedzGfgEqdBFiDCnmc5NHWI+ZrZ+CPFbbu37YT1mSdoF3/rZIMSxCBHmNoDaM0T7q1iPuyE6ILGOGYRsihAb2v2gtE5LdTIfd0N0q0freEFYmmURQrectH6+NLRXi/VYG7I4dbh5vFzVS1UyHycIG6Wqut4np6ev/X9T27ltHPX3L8hCih/v+Gh6eEOInykWXe6nMxW08aT1fIIwIKTdMdZleupAN/tJt5m1ng8QR8yCSGCYDYEkGxFyv4Km62jyli+FLkK8mb65tH42CNkM9NdH93u3jhuEr1J7m49Z0lMhdXlXcStC6Dfx1s8FRYth1uNm45b0zbp1zCBkU4QIs5CndJtJ63E3ZItUXfN4QdCdQKzHXJv2jrB+vjR0wGk91oYE/Vx01w3rcXLRI9XQbSWpOxz8EkIPjdLSYpL1vC0DUy3MY+SD/l2/NP25UdqdNNZWPVXefLx80JlQ2q8q2x5PQBQxCyLBYTYEkmpBiFNMb09/sFuPmU+FLkLotGLrZ4Og25pZj5mt3dPP3zpuUDb0zfuTFCH+EuaAVnUvxYDusBCX7mRThHglxOnnfqbBr61sqox5zCDorALrMUsKe5lKoekOStbrztZOqcaugJaPHWdKS2dhWK/B0jBV2TxGvulWodqTxHqOuQjzszpb2lT5iFRr8/kBUUZDygSH2RBIolYhr2vWQa71uPlUyCJE2N/u9CzlDWDY139dWx1mPJHayfy5IORShAhzKrb1eCUdktrE/Lkg6OuyHjNbQTcdLCmbIkSYzTHPy3JHjHUJa4C7KIsixKEh93UpNN0JyXrdG6IFtzCb3oZBZ2dYr2VdwpxF5tfwVD/ZJlXffJ5+aPNq6/iFoH1R9PfLep5A1DALoghiXyz/mA2BqNBvmqz3aBCy+SYvHwpZhNClKNbPBUW/EbMeN1vlQvwmV+m3+9bjZuge7tbPBSGXIoTuCmAdKwjW45WkW/RZPxcE3QnFesxsNUpVMY8bhGyKEKuNnwtKNjvsrM976c9z67iltTCLv59hNKWMEp2BY73udamfqhRqYTNM2fYAydDmitZxCkmXTVVNlTefbzYqpMrKvNSh5rEL5cXUzrL5Bj7HgEJjFkQRRKtD1gXLBbMhEAVhri39OoueAPlQyCKEdha3fi4oetNmPa4fv4d409dnA9OpH0vtaP5cEHIpQqwsYBFC11lbPxeEV1P9zMfMVo0Qt/HdUBFCBzXWzwWlaynXtj+Y6mket7R0mZz1eCWFvU1ooR2Tame+bsuu6UH51JC3cQ3Tyiy3ZC0pzOVsudLP/Wy2Z16XU1IdzeMWGrMiEFXMgiiSBLkkg9kQiIIjU23N92cQ9BtC6zHzrZBFiB1C2MM/I5tBSjbCnOp+wAa+ZX40YkWIMJr8ZViPV1KYzRf1PFuPma0wCwEbKkI0CHn9+yap6ubjZuvmkJp2zs/i9zvsnY0K7V+p9ubrXpu+h6yfjxOdhWW9tvXR3UOmRbDw8mvqEOlbin4eUZ3NckaOu+gAYWIWRBElqAaVitkQKLRTQ/zWoTQN34JUyCJE7xCXu5R2e86MMDvF997A3zjds936uSDkUoRYXsAixJ2p7ubPBeG21HbmY2YrzN4mGypCtExVN38uKLVTFc3HzVYhixBhFvGiQL8Vt153SdpE0PrZuMm1b8v2qYZu0G8ds5D0OWnPIes5b4gWPd9I9TePW2h+lwgBYWIWRJGF2RBIkosD/QO2prd87HsepkIWITqnaps/F4RcvjmzLEsdYR4/CBualvtIagfz54KQSxFC12VbxwqC9XglPRziudAdAqzHzJautbeOG4QNFSH0PWT9XFBKs4ZdhVU80rXx1uOV9Hyqj/mzSXFmqrP5ujO6pwfg1s/FlfUas6HbZUZxRkRpZkOWSXshtbN53ELSz0t6RCAqmAVRhKE3BJLi3+mbPOt9GYTRqb3Mx8y3QhYhwt5KrWaqgvm42aqSKmceNygbapwZ5sA7lyLEkgIWIe4IcSbEPake5mNmq2mqqnncIGyoCNEs5OauOqX9/9q7F6h71rsu7A8ECDE5CUlIyKW5HHJyOYkkgQRISEIOISEXck8IRElO8MISl4CXLqqiNljb4qX1Arqkq+LCtlrFUlO1wlq1EcWwFEHxLrR4oU2roWgXtkBp2d2/9/1P8vz3+e33nZk9z+yZ2Z/vWp91zv+d2XPbs/c7z+995plsvX19V6MxIWKslmx9tZY9iZYgBmvN9rvzw+Ut6evWKtvHvuI8/uONzsVTfH25P93evn5zwwF7x/qehfTy5LLpBXHByd/E4fSG4Jx+ZcMxIf638pXpOud2ziJE/DUne91Unlsek663r+c3/itz7H+23k6rQf3CmCJEPNElW9YUsvXVfl/DMSGix0m2zr5eWh6fLncKtxUhWg6KGb6gPCFdb1/RIMmWe6qf7lGEaHUryFLcVIR4sNyXvmYqH93//vqr5Y2779x/R8VjXN9TnnnV46Ar/GavOdXhPo4R4/AsqTjzP5V3pds5RAzw/N8s7JGrUzySFE6RnZdj7Zcna4reEGzBO8rT03NyKi85ceT5KZyzCBH+VcMxF8Y0tGtv3r8+W+4UYr+zddZa/uXurQOPTRRMWj4KMltnbdq/atzth/aNkmydff2KhsXK24oQIe6Xz147hdeVp6Tr7OuflXenyz1VnzFf4thlr92Km4oQf7+8PX3NKWIcgngix/N6FHd/pvzydBmnyNYzVoxdsJRixLvKM9JtHCrGv1hKMeI7ysvTbYQ56AUh+zMhezOH0xuCc3l1eVJ6Tk7lm265p3cO5y5C/IMGF8ud33jiaN0tu7rGfmfrrMVfGbPXTuHrynPTdR5zb7knXc5UsnXWWt4aFeOH3NYr5SZ/sOGjIPsUIaJXQPbaKZzSXfxJ5RHpMqfwUz2KEPH0iOy1W3GsCPG2BsXzPoNg1mLg0Gw5p8jWc6oYHPk/L69oeqvZbeJWs2zbxooiUTzSuOWTnW4T6862DeaQnZNj7Zcna4zeEKxd68ffxS0Zn1Y+OV33XM5dhIgiY/baKXxveV26zr5ablv8xSpbZ+07Gj5i8D/YX6Rm6zzmNQ2fZBKydda+qtybvm4q8bjYbL19tPprf+hThPinDdcfgztm6+zjV5XnpMucwsd69CRqfc6c27EixNSDgX5LeXG6npu06J2TrWcqDy8Pu3qSyPfsv5db9vjK/HjDBvuXladeFTniWiNbd0txO2O2TdCSXhDy8eRv6nB6Q3Au/2t5T3pOTuVbBjYGp3buIkTsf/baqYwd3f+pDQcbDH2e8d9yHIQ/Vl6RrvOYlrcchGydtdYj/Q8tynRaF2f6FCH+Tnlr+tqpjB3g9b9rOHp/n9uZ4laS7LWnih5KMRbHOT1qL9vn8M8nfBJEn6eQHGr1xJZsXS3EsX1/edasT594WPmkdFum9Pry1N1/Vr7o6lambBum9uU9fv/D1LJzcaz98mTN0RuCtfu+GZ7H/ZXl3nTdczh3EeKLy2elr53K7yqfl673Ni2fxhD6/JWo5SNi/0l5Z7rOY+KRstlyppKts9a6KBQNt08e0RD4i+W16fKm0qcI0XrU/7gtKVvvTVoVADr/skcRotWjU6PnSba+JYjBIbNtHuv7yxvT9dzk15X702WdKltXa3FLUXwPx/mWbdNU4lzN1t9KFJX/Znlzui1TiXE3snVDK3pByEOSv7nD6Q3BOcS9ldn5OKW4J/3t5enp+seKi9E+T4c4dxEitLh/uDZ0ANAvbfzX7b6NmBjTInv9VPoOiBYDnmWvn1K23kM/0/DpHKFPg78WTwTIljOlPtv0dY3HPvhoec/ucQMbSX+9vCld1lT+955PF4onOGSvP9XQMVXm8tqJiz/fNeLJMT/Q6L3P1jWXuG3y9zcc++W+8uh0va3FLSjZ9kwhilHZOqGV7Dwca7882UL0hmDNXlQel56LLfze8tKTu2VGV9iuG3SfwsYSihCtR/T+F+Urdq8rT07Xfehl5QnNb8HpeyvEr254T32IXj7Zeg+1HPOgk633UIzOn712Sn3/ehfndvb6qfUpQkSRLXvtlL5vwPgqf6q8Ol3GlPo+4vi37Y9f9vpT/XR571WhN1vnOb1n4nEwopiUreeYlj1gsvVlWj4e8g80KkTcVuR78f46JPv5FFr9oeWX6QnBjPSCkKPJ3+Th9IbgHH6k8T3XtbjXOS6cn14emW5LJgoPMUjZRw4KCvGIyWz+2hKKEL92hlHsf6G8f/fry/NvLPK8uzxz97EZ7pf96vKsdP2H5hhY74fKm3cvLI9N13///rz6S/vGZ/a6qWXrPxQD5GWvnVqMxfGYI/fcxy0bLW+TOdS3d8Yco/v/rfKW3eff0MCLaYffQa18tGcRIrYpe/0Uojj3yhMGNO0jvq+GPKHk15Tnpts61v+317cXzMPLJ+/+YXlHupwpZOvMxLz/aL8d8X2eTT/FG8pTH7Jdp/rZ/Wc3W1etux3uN+x/h40do+WY+E77hQYDifqjIXPKzsGx9suTLWVXHnwge6PHiGrX1SJhJt9cXpiei63FX/Cjl8AfKS/f/Ufl83Z/obz2aoyDbytfuPsT5VVXDcif3zeus9eGN/YoAiyhCPHs8uj09S383P6C78+UB6661sa97r+nvPSqy3E0arL5pxZ/wf3Unk9EaTXA26EYyT7Og28vL7vqQvu798ek9RgQh7L9PxQDq2WvbeW79+fJt5aXXBWvYuDKHyvv3P3bxreEHOpbhPgrDZ/kcigamvFYw/guit/H8RSXHy1vS+dtJW4RyY5D5icb92z6rfvfD2MHwM3E42KjF1s9sGc2X6bFo2z73JLxKfuGbDyNKHv9VLL1ZurXdEX9+8o96bxDfW2D3ml9Hmd5+H0cYxa9vDwhnXeoZ5RH3bXsqTznTLeYcHn0gpBb84vlAx/O3/Dh9ouD2TymfNruZxqPW9DCl5WnpPtTW0IRIkRhJVvG1kSDNtv/Y+Zu9J5Ltu+Zny6/LH39VvUtQrS67WCp4pap7Dhk/tOGT5npxLg2USiO8VOybbhJPB4yig7fuP9u+PPlS9NeLdnrMq2eYhO32DztSO+8d5Zn7P5BeXv6uill685krw0/XN5yVUyMW+6y193mseXhTYqzMYZGtr7asfXGHyrikaxvKU8bNbBuaPUUppue4AJTys6/sfbLky1GbwjWLBoD2bm4ZDFIWbYvtaUUIeICN1vGlvz4wCdShL/WeIC/pcj2PfNHysvS129V3yLEv3MBn5/a/zKgCPFZ5RE39hibWvR2iqdKdL1FokD0m8oLdr+lvHD3H+7//QfLF16NCxMNy77jrWT7lXlbeXr6+inEbQM/uP998Z37bY/P4Z8rr9l9rPFTI2rZ/may1x6K8+dD++3/7fv3Jn5PxTkSPVCy5cWgkVEgalVoiZ6O2XprfYofUbyKW5ajqPDecu9VT4QYUDNbXvxhJcZsaDXez5jfdTCGXhDSO3pDsFaPKA/b/dRMz9eeypqKECFujciWsxW/qjw73e+b/KEL6SGS7XvmVY0f6bo0fYsQ4U+XB9JlbNFPlq9Ij8Ex3zLDU45ayvYpE2NUZK/fgmx/M9lr+4rf8f+4vGP398rbrs6xOXpAxmCe2X7UTumBEb10fqK862psq58o756lN1n8Ls/2A6aWnX9j7ZcnW86UvSEMUsncWnV1bWVtRYjPLJ9+NWZDtqy1+9v7C8Bsn28zx+CUS5Dt+zGtH/+4JEOKEDEGTLaMLRpahIgxG9ZWRK5l+5SJv+hnr9+CbH8z2WuXqu9TXuZ4MtCUphqvAm6iF4QMzpS9IYy+y9xiQMjsXFyitRUhQouB1ZbglO+qf30B4yBk+33Mu8oz0mVs0ZAiRGj5dIIlGVqECP/uir9bsv05Zu5BQueS7Wsme+1SxQCT2T4cmuspRVNwKwZziGuq7Pwba79MuYToDcGaxb2U/3x/AZydj0uzxiJE2NotCF9T7kv3s69LGAch2++bXEpviKFFiLjPO1vO1owpQoR42lC2vKXL9uWYrQ7ym+1rJnvtEsVTiZ5fPiPdh0N/sbw2XcYS/erynHQfYEp6Qcjo6A3Bmr16f87FBUR2Pi7JWosQ4b8tr0mXuTa/s3xuun9DLGEchB8qb0l/PpVsv28ST37JlrM1Q4sQ4b9YUW+tscYWIWKgvpbfea1k+3JMy8Ep+2jVcyvb10z22iX6teV56fZn4qkp2TKW5r8qX5xuP0xp2gLE1XeLXFL0hmDt1tAlfM1FiLiH+281bvi2Fo3BbN/GOOc9wdGo+OxyTzptKtk+3+Y/Li9Jl7UlY4oQTyyfvvvYisc/6CN6o2X73sczy6OuHm2YLXepsv24yd8sb06XM4d4MkP281Nl+5nJXrs0f6bsL4GTbT/mQysoQny0vGf3+PLwdPthStn5N55eEBeZKXtDeGQn5/C15bnp+bgUay5ChOeWx1zdX5ote+ni8XXZPo314vK4dD1zeH156tU2ZNOmcri/ff2NMza2Oi1vzxpThAgPlvvS5c0pHkeZ/XwK8bjEbL/7ekV54u7/XUFvtk62Dzd5X3lWupzW/mR59dX6s2mnOtzHY7LXLkkU159cHpFu+zFL7xkYPUPfUZ6ebjtMacpeENEO3S9TLjFT9oYIbsvgHKKhPeez0odYexEi3FM+dX9h+8Xp8pfq329UFP0dE3dB7OPry/0fX382fSr1fg4RTwM4Z4+Z315etPvDDcfsGFuECL9t/9psmXP4Y+UVV9uQTZtCfG8d7u9QX1iesPvhlfS2yrb/Nv9jeUO6rFaiMBRjJsW6s+mnOty/Y5ZcXIpHbX7GnWM0xJLHMomnzrj+Zi7ZOTieXhAXnSl7Q7gtg3O5r9yz+4EFDpS3hSJE59eX56frWJJ/Wb5q99bytHT7p/L95Y3pulv45vLCu9adzTOVej1DRSGi9ZgVme74LLUIEX5jeUG63JZiEL1u/T9f3p/Oc6pozNX7eYo1DPyabfdt7i2Pmq1AHu/zS8rjP77ubJ5T1ft2k/+n0Tl3qu8eeAtGLW7fyJZ5bj9e3rV7UXlcus0wNYNRyqTRG4ItiUfA/dvy1em5eQ5bKkKE6EL99xb6+LnvLa/bPa08Mt3uKT2qfOoshYj4K/rhurP5pnK4rqFiDJE5B2SsCzRLLkKEXzPjbWPxOXj0/hzt1v1vGg1SOPSe+tu8vzxr938t6Lv7ULbNfURRNFvelP5V+aqrwZrr9Wbznape/k1+rrwvff05Zd+nQ/zX5dXpcs/pu8orZ/mdB2HqwSij/blfrlx6ohqVnyDD6Q3BuT2pPGL3R8vL0/NzblsrQnTiEWBLGbTyv983ut7SuPfDoZaFiJ8r7z86ans2/1Sy9Y3RusdMjEFx+LlaehEixDna+taDf698zl3rfER5WDrfFH5Peeld65rCfeXRu99XPn/3MwsrRsT99tn29vWG8tTd/9FooNL4Hv6l5bEPWWc276kO13HM/72gIkTcSvisck+6nUMs6ZbEH9p/B8Y5lW0ntKIXhDRLfpKMozcES/Ds/QXtf7K/oD3XX9fi4vDzy2em21ZbYxGi88b98j90pgG7/nh55e4LehzfVuJRg1MP/BcjsMetRdn6QvaaqWTrGysGNI1HxWXrGSsaNnFrQ7a+NRQhOr+hPH/3f5Zfnq5rrB/cf4dkn4W4HSCbfwpDHm84VBRPopj1D8s70nXP5e+Xt19deP/S8hnpdg7x/P0yfqS8NV3PWL+7vCRdV8jmP1W2nkyMUZC9fk7fs/+9NGVx+r9cQBHir5c3Hf0OhJam7gWxX6bIJ6I3BFsVAyt+4/6CNv5i/ovJ+TqlHy1v218YvnT30gGN4zUXITovLI+9GgwyHmPZ6naY6HIcjfT4a+8z9o2rbDvO4Tnl0Sc3uL9vf25GQSdbfi177VSy9Z3qdeUpV7donHJO/J19w+23lhfunlp+SbqOsKYiRPjM8ulXPQliIMFsnX391fLG3QfKfek6wmvKk9PXTWGu75Z4FPN3llfs/tEMBYmfLF9x9RSEuNXnBRMUHjLxfp3yvkevjG/fn+/337J92WtPla3nmPiO/trynKti8d/d/15sPVhl/G7/nvIlV08lid/52Tad6pHlU3bv3J+Pv798we4j+9/brW51qkXhIW4zvak4Da1l5+Z4ekFIEo/sZOviL2zxGKvoIRGDt/3P5V3p+XuTuAiMRwJ+ZH9xEPdFx1+jvqI88+qvjtk6L1H8VTb+khkDgf1EeffuXw+4WIuL1Y+V9+7+8b7RERewcetHqwbBlOKRb7+yPHv3Z/cXwn1638RtBd9SPnf38vLEdHlb8kl7cfH+beULb72NJ45dNNKikT6kmLdWcW5/076REbf3xHmfHZPOz5b3XfV6iEby5yRd8A/9gX1jKVvOFJ5yQ1GolbjV7h378+j37s+NGIj4o+Urr45Jtn3HRGP1n+6/k/5KecPVPfW/c/8ZjN8Jc99b/9Y7v4eia322nbXoWRAF3vh+6dvAfsS+wTy1bD1DRG+Qd+9/V0Zh77vKq3Z/ubz+6nt+aJGy+xzEbZcx3srLyxP22/ewdJ2tPX1/3sStEdFD4TvKF11dV/xoeeuo3iDxvRcF7fg++LLylN1nlU9P1wlz0gtCZkkMEpKdMGO5LYM1iIuX+Gv255bH7V5ZPmv3+v0Fxdv3F4hxYRHn8Mv2Fzgv3k97XnnMjX+N5XaPLZ92Vaz53PL4q7/SxnGOAdVidO+4mGv1F6xziAvIuFc79vMry71XF99fst/XaDw++cLPoxhTIz5TX7z/vL25PG33VfvjE5+zaGRm81+STymfdPU983n7z8gb999B0eMgvof6FB0ORWM7+918qmgsZes7l/gOj89UNHJj8Nw4p+K4xWfvi/b/jmMZ0565/+6Jgli2jHN61L6B/4z99198L0bvoRjMMv4bv4/iezF7zdY8rjz86jaueK9etd/vOPfjdoov2b+HUdSO9y+ORcyXvX6JYrDe6MEQv9/iPIzCQhS84r2Nwkl8pu/dT3/C/nfFuYoocJvsd8B4ekHIDfHITgBYt69t+ESO+Itvtk4AtsNglDJr9IYAgPWKW4P+zcSDX9beW+5N1wvANrgNQ86SqFZlJ9AYekMAwHxigL7s9/FU4naabL0AbEO037Lv/3H0gpAByU+icfSGAOCS3F8es/vWGx6h2ErrAsSfL1+arheAbdALQs6aqW/LuFokAFyAKEJ0v/++rjwvnWdKMahfjMxf/95tIR67mK0fgG3IvvvH0wtCRsQjOwFguLoIEX6+vO/qkawxyn82/ym+ody/+4Xy4F3rayEep5itH4BtmLIXRLQj98sUGR6DVALAcIdFiNoPlDftvr7cf9V7IXttHzH45G8pL9z9k/LOdB0t6AUBsF3RTsu++8fTC0JOiEd2AsAwNxUhaj9V3rv73vK63e8qn7d7d3nm7pXlibtnlXt2jyyfcrWcx5eH755THr17+f7nX1Oevfu28rLdR8qb0mW19HfL2x6yjwBsh8EoZVGZujeE2zIA2Lq+RYi1eFt5erqfAKyfwShlkYlqVnaCjeW2DAC2bEtFiD9ZXp3uIwDbkH33j6cXhEyY/CQbx20ZAGzZVooQHy3v2T2tPDLdRwDWTy8IWXSmvi1DbwgAtmorRYg3lKem+wfA+k1dgNALQppkykEqw36RALA5WyhC/KbygnTfANiG7Lt/LI/klGaZujeE2zIA2KK1FyG+qXxOul8AbINeELKqTN0bwm0ZAGzNmosQ31ien+4TANugACGrTH7yjaM3BABbs8YixM+V9+3eW+5N9weA7ch+B5xiv0yR9olqV3YCjhXVuKvFAsAGrK0I8SPlrbsXl8el+wLAdugFIauO2zIAILemIsS3lpfsPrV8crofAGyHAoSsPvuTziCVAJB43gqKEB8qX7p7kd4PABcj2lvZ74Ox9ssUmT9uywCAh3pOeXT6e24JovjwmvLkdLsB2Ca9IGRTcVsGANztvnJP+jvuXD5W3rv7jvLy3SvKE9PtBWC7on2V/W4YK9p/++WKnC9uywCAh/od5UW7HyhvSn/XzeGflXfvvrO8Yvfm8rR0+wC4DA16QTywX67IeeO2DADIPak8Yvee8szdt5eX7X6wfPnu58v70999p/jZ8r7d3y5v3f2p8urd15f7dy8on5FuCwCXxW0Ysum4LQMA+vnscs/u1fvfc19dPnv3m8vn7P5wednuT5RX7b67PLD7C+W1u79cXr/7SPnyK99f3rj7H/b//kvldbs/V15zNe83lxfuvqbct/uy8pTds/bLytYBAFk76xT7ZYosJ27LAAAAWAa9IOQiMvVtGXpDAAAADKMAIReV/KQd72qRAAAA9JK1q06xX6bIcuO2DAAAgPPQC0IuMlMPUulpGQAAADdTgJCLzdS9IYLxIQAAAI7L2lGn2C9TZD2Jqll2Io/ltgwAAIBctJeydtR4ekHICuO2DAAAgLbchiFyJ27LAAAAaGf6AoTbMGTlcVsGAABAG1mb6TR6QcgGMvVtGQoRAADApZu6F0S02/bLFVl/WtyWYXwIAADgUrW4DSPabftli2wjU9+WEYwPAQAAXKKsfXQat2HIBuO2DAAAgNNM/ThOt2HIZuO2DAAAgPHchiEyMG7LAAAAGK5RAcJtGLL9uC0DAABgmKwtdBoFCLmg5B+C8RQiAACArWrRC2K/XJHLSYvxIdyWAVB2dbLprNc3fMM33Hlnr5PNM5U62XQA5uM2DJGJYnwIgGnVjdQPfehD6Tys11zvr/MIYFmyds9pFCDkgmN8CCAMzY/92I9d0UC6m8bjtsV72iXe62yeWn0+xOclmydTr8d5BHBeU/eC8DhOufi0uC0jPqhXiwZWoW4ojU00sPo0yrZuaCOVdYnzvEuf9/cwfQsRziOAZWh0G4bHcYq4LQMuW93giURD6SY3JaZn67gUdbLprFudbPqhw/T9fNTJpgPQXrRnsnbOadyGIfLxuC0DLtfYrt8xb1aUuORCRJ1sOutV9xjqe44ffj76fr66XPJnCeDcsjbOaRQgRB6S/MMynkIErEOdMV2/4zWHja21NZ5iH6KBOKQIc6hupJ6yHJZp7Psb88bnoe9rnEcA5+dxnCIzxfgQcJnqZNP7GvtX33OL7exyyjbXy4mGZDYP6zXX++s8AjivRuNA6AUhcizGh4DLUv/VNZLNM0RdiFhLb4ipGn0aj9tWp+X7W3+GnEcA81KAEDlTph4fIihEwDLVDef4/2yeIaYuasyhTja9rzrZdNatTjZ9KnWy6QC00WIgSo/jFOmZFrdlGB8ClqnFX+/rv+ROUdhoqS6anNJzY6rlsEz1+9vynJ5rPQA8VLRXsnbMaTyOU6R3WtyWoRABy1OnRRFi6Q3yqRp9Go/bFu9pF0UIgO1xG4bIQtLitgwDVcJy1A2eSDbPGHWDbelFiHpbTynCTLUclmmu99d5BDA/BQiRhSX/UJ3G+BCwDHURYspiwZqKEHWvjVMafVMth2Wqk02fSn0eZdMBmFabAoTHcYqclBbjQwSFCDi/ulgQ/5/NM8aaihB1sul91cmmd6JAUR+fLnGcpnwPMrH8WE/d0O0S085RPOm26TDn2p5j6mTTp9Llps/NOc+hcNP6T3nPuuVm50Mkft6J+Vrsa6t9A5Yra6ecTi8IkZNjfAjYpvpif8oL7PoiPtZx0/QWDYlQ71vWqBiTY8coft7l2P7U89yWKd+LWFZ9LPrklPek3s/sve8M2aYpj8cY9T71PTYtXhPT+x63U97Deh2Hxz6We1OGrjeWf9sy+yRbdmbKfavnH7rffdXb22odcMkaDUSpACEyVYwPAdtT5/CC/BS3XZzX0+Mi+3D6qWJf6hz+e2yydYV6+dn+Zg3H+FntMFO8H9lyI7etOxI/z5Z5m9uORfZe9NmeKY7HWLedz5n6NX23/abXjDlu8bN6GX3Vyzr28y6H6+57fEK9v4fplnvoWLLlZ+plHPt5l8N1Hu5bvf0xXz1tCofveTYPMJ5xIERWEoUI2I6WF7g3Xbh3urS4eK8T+xnb0DUoaofJ5ukcNgprdWOkni/+P15b59hysnmz+fo6XFb8+9h7EbL1x7+zeW9SH4vD9dXTIjct/3Dem7a9tfq4HHv/Do15Tb3P9Wvi/+vctLzD97Dvumt1up/Vy43/z5Yb299nfYf7Ezm2zGPq7RlybtTpfnbKvnWJ1x1OO1WdIccGuJ1xIERWFONDwHbUDYGpL6DrHLt4rpNNH6tuyN22X3XjI5veV53uZ/XxjfRtKNUZ0rjqHK73WKPqmLHb3amPf/3z+lj33aZ6WZFsnjnUyaZn6mTTM3W6n9Xvx23nc+fwWGfz3KRL99p6G4acS5nD97TvuXCoXs6Qc7TLVPtWJ5s+Vr1/Y95D4Lhod2TtkdM9+MB++SLSIi3GhwhXiwZmM/Yi/jb1RX0kmyfEhXWXbPoYh+u+rVFRJ5veV53uZ/X+DWncnNr4qNc7tvEy9DjWsvf1lH2qM2Q7plIfi77bPuY1oUv3eRy7nFBnyOe7Xme8rv53/H/2mr7qcyNyyvLqc6rvclrsW71P2fQx6u2KjN02IJe1Q07nNgyR5mlRiDBQJcyrzpQXuXVuavzUF+9DGkk3qZd52z7VF/qnrD9bTrcd8d/D+fuok00/pt7/sevu1MsacnwO970+PmPOs1h3l6nOkyHGnCdjtjlbT5cx7+XY9+/w/eqWM+a9q9XHJHLq8upk0zMt9m3scb5JvcxTjxNwN+NAiKw8xoeAdauTTR/jsKGRzdOp553i4r1eXlzEZ/PUplp/vZxoMHT/7rMNx9TJpmeG7v9t6gZbJJsn06Xbhi5jG1NTvU9jHb6/2TyHpnhN1xAd+17WyxuyjPp13f+fej4dnktjz4VanWx6psW+HS4zm2eIenmnbhtwtxYFiGgP7ZctInMl7nvKPoynUoiA9g4bBdk8Qw1taNTzn6ORU1/s95n/mMNGSJds3r7ieHTJpmfqnLI/tTp9llm/D3Esuv2I/8/m76Ne5jkaZfV70fe41smmZw7Pxy7ZvH3VyaZn6v3tks03RJ2+x/Amh+dZNk+mxb5NeX7Wy4pMcayAawaiFNlQWhUiDFQJbdUNnlMaiJ16eZG+F+NdTr14rxsXffenTja9rzrddpzaeKiTTT80Zv/7qJfbZ5/q86B7bfw3m7evw2Vm87RUJ5ueqZNNz3SJfeyO3dznUTjMqdtQv39TnZtjl3mYqRr5XU49P7v3PTLVsQKaDkTpNgyRc8X4ELA+UzUM4iK+vnCODLkQr5NN7yO2oU42T6ZONr2Pw3VHpmjY1MmmH6qTTR9r6HlyyrlwzFTn6hj1+9t3X+rX9N3ew/V0/83mHaJONv1Qdj5n8/V1uLxsnjHqcyLWkc1zaOp9q9XJpvfR6lgB5apdkbU3TqMAIXL2tBgfQiEC2qnT9yK+E/PXjYA6QxuJdaN16HZ06vRdRn3Bf0rDtl5OZIqGY73MPsur34tT9iUzdNn1+xkZ+57W6mVOvX+3GXNsx7zm8DyKTH3s+izvcDtO3Yb6WEyxP5062fTM1PtWG3qcM3Wm3Da4dAoQIhuPgSphPerEBfRtbkvMM+bCeUyDrVa/PrYhmydz6no79XIiUzQeYhld+mxbnWz6KYYepzpD3o+b1OdfNr2lev/7vrenvibS51j3UR+7PttyuB3ZPH3V53Ekm2esOtn0zJT7dqhe9pj3rn79VJ8bwECUIheRVuNDKETAtA4bB6ckLpj7NrQyp1y8H+7HkO2o13vK9teNvDGNj8yQY1LP26LxMnZbItk8Y9TJprdUJ5ueqZNNz9TnUeSUc7JWJ5t+aMrzeci5M0T9uR+y3Baf1c4p+3rK9xhwXKuBKKO9s1++iCwpChGwfPUF89DEhXy8Pi6Up24oDW1En9KoqJNN76vOVMejfn9uW2Y979Bj0MeQ5dfzDn0vb9JlymX2VSebnqmTTc/UmfJ9rJNNP1Tn1PO5zlSfjVCfZ0OWW2fK7el0mfN7DMg1LEC4DUNkqYkPaP7BPY0nZsA06ov4JVz01smmZ6IR0WXoRf8pr63Vy4lk84xRJ5teqxsw2fRTDTlXWjSmznmu1u9v33Wf+ppI/Dubb4w62fTa1OdznWz6WHX6Hqup9y1TJ5ueqbfrlO8i4BMUIEQuOC3GhwgKEXC6OlM2eMYa05CuM3Qf6gv/Uxq2rRrIdbLptTrZ9FMNKSzUyaaP0eoY9zFm3WNe06qBPLSBO9XnIky5rNrYY9Vqe2pzf48BD+VRnCLSrBCxXzQw0tiL+Jbqi/c+F+JjGnq1+vWnXPhPtZxa/f702bcufRqZYwxpWHWZclvGNOymMub9HXouh3o9fd7zvoYud8z+HjPHPg05z6bct2OGvvetjhFcsqzdMIX9skVkLWk1PoRHd8J4cXHcZcrG4imGXIzX2x/J5rnNmIZipk42fYyxx6LVe1knm94Zst1D1Mmmt1Qnm56pk03P1DnlfDxUvyd9llsnmz7E0HX3VWfIeVYnmz6FIZ+B+rMbyeYBhmnzKM5gIEqR1aXV+BAKETDOkAvluQxpTE9RQKiTTe+rTjZ9jCH71/q9HPK+tNiWIeufWr3uSDbPobHbWyebPlad286lUCebPsQUn9ND9TkWGbLcOtn0KQx5/1scH7hkxoEQkYekVSHCEzNguKVe/Ha56eJ9yEX+MVMsI9TLmbIAUCebXmvR8K8NWX59XmXTx2i9fzcZ8/7O9Zo+6uVGsnlqU29HnWz6GIeJbc7mO9TqGGe6tP4eAz5BAUJEjqbV+BAKETBMnb4X8XOok00PdcZuezRCupzSIKmXM9VxrBsnkWye2lT7csyQwkKXKRtV9fpb7N9Nxry/c72mj6HHrt6OPvPfpk42fah6+7pk82Wm3reb1MmmhzpTvudwiRQgROTWKETAeQ1t5M7ptgbvVA2JejmnNADq7Z2qIVG/P332capjkqmXfVthod7u2+Yd4rZzoqUx7++Y10x1Ptbq9yOSzXNo6u2ok00f6jBDzrMWx/iY287Zelvi/7N5gH5aFSCivbJfvohsJbtGA1UGj+6E29WNkyEX8XO4qaEwplF1TJ1TGiR1suljDG2gtHw/68bUbdsydLv7qpNNb6lONj1TJ5ueqZNNH2PIe9epk00fqk42fYhuf8bsV6iTTZ9S/Vlo+T0Gl67dozg9CUNkk1GIgPNp1Vicwk3bVjc+TikchDrZ9D5aNf6H7merRs3Q/Zvy/em0OsZ9jFn32O3tMtU+1tsRyebJdJlqO2I5XU45J+r9qf9/yPdXl6n27SZzfY/BJWtZgIh2yn4dIrLFtCpEeGIG3KzO0i6C6wZG3VgY2/DIHFvHUFNuU61ONj1TZ6r3tG4s9dm/ev5s+hg3NeZaG/P+zvWam9TLi/Q9H6bejjD0HDqmS2xjLKfLOfftJvX6Wn2PwaVr+ChO40CIbD3xQc+/AE6jEAHH1cmmn1uX+uK9Tj3vGHUj5pSGwJjG0G2ONV5uM1Vjr1Mvr+92dBmy3bept2OqY9zXmPPk1NdMsY9j3rsw9XaEMcfjULc/3b6MOSda7NttutTvQZ16XmAYBQgROTmtChEGqoSHigvwOtk851Y3Mg7/PUUDYoqGUZh6u0L9/gzZtinf13q/Itk8h+r1142uUx2eC3Ma8/7O9Zpj6mVFsnmOmXI7OvVnLZafzXOTepu6n9Wp571Ji327zeG2n2MbYIs8CUNEJotCBMxjqgZ4S4cX613i59n8Q011DOpk08eot21oQ6XO2GNVH/tI321odV51meq9H+LwPMzmOTTmNXWy6X3Un5Mup5w/2fSx6gzZpmPHsk49/03qZNNbONz+Luc4l2ErFCBEZPJ4dCe016qxOKV6G+sMbVQdM8UxqBsVUx7HMY3YTr1NkaGNnXrdkSHrr1+bTR+j3p9zNNzG7NPQ10yxj9nn5ZRzZ+pjfbh92Ty12Jb6OB7uS5e+29ly326SvS+Roe8NcK1VAcKjOEVEIQIaq7PUi+Hs4n3Khn69/KxREselm+dwWqdexpTbViebfpu68RaJf9/2Ph++JjL03KiTTR+j1THuqz4ufdc/9DVxnA/T93X18ekS68/mv029HS2OdZ2bzsnDfTqcr97Ovvvaet+Oyd6fOdcPW9KuB4RHcYrIPruGj+5UiIA2jcUWDpPNc4rDRIMmazRkrw31vMcaVEONaWBl4rVZ4ue1LPHzbJm36TL29Zl6G6c6xkMcHqP4d7zv3X+neE39nmeJ1x06llOOUYvzuZbt5237lW1HvZxj78Gh1vt2k8Nk8wA3a1mAiHbHfh0iIvGNoxABLdQX8HHRn82zFHVaNBzqY3EsN623TjZ9jHqb+jawjumzf3XifBi7zrqRd+p21+qGaTa9tZuO4bFzY8xrQhy3rCHeJ1Mc8zo3becpYrl99jHmObYNY861Oq327Zg6c68btkABQkRmTQwQk39hnE4hApatbmhEgySbZwpZoyjWvaXGQuxLfTzrxL73bchdqmPnSDZvZ8xrajFvOFxGl276Ws/TY/u25n3KxP50if3N5gGOa1yAMBCliORpWYh4oDwp/cIDzisaIXWyeQCWzPcYnEYBQkTOGoUIuCz1X0i39FdR4HL4HoPx4vo8u26fhgKEiPRMqydmBIUIWA7dl4G18z0G4ylAiMiiohAB23bYfdlfD4G18T0G47UsQEQ7Yr8OEZFh2TV8YkZQiIDzqrsvx18Ss3kAlsz3GIzTtgfEB2IdIiLjohAB23T418NsHoAl8z0G47QuQET7Yb8eEZHxaVmI+HB5Q/rlCLRVR/dlYI3q+B6D/uL6O7sun4ZxIERkosQXSv5FczqFCJiX7svA2vkeg3EUIERkVVGIgPWrL9zj/7N5AJbM9xiMowAhIquMQgSsV33hHtF9GVgb32MwjgKEiKw6ChGwXNkFefzsMC7cgaXyPQbTUoAQkU1EIQKWKe6Nvi0u3IEl8z0G0/lgeXF6vT0NBQgRmTktCxHxhXm1CmCQw67KdWKaC3dg6XyPwTQUIERkk1GIgGXJLt7jr4ou2oG18D0Gp3MLhohsOi0LEW7NAACA/hQgROQiohABAADnpQAhIhcVhQgAADgPBQgRucj8YvnAh/MvrtMpRAAAwEMpQIjIRad1IeKB8qT0yxcAAC5JXBe3LEDEdf1+PSIiy0/LQkRQiAAA4JLF9XB2nTwVBQgRWV0UIgAAYHoKECIiR6IQAQAA01GAEBG5JQoRAABwOgUIEZEe2ZUHH8i+5Kb0wfLi9IsaAAC2oHUB4tqDD+zXJSKy/ihEAADAOHGdm13/TksBQkQ2lvhia31rhkIEAABb0roAcX19rgAhIhuOQgQAANxujgLEfj0iItuPQgQAABynACEiMnEUIgAA4KEUIEREGkUhAgAAPkEBQkSkcXblwQ9mX5BTUYgAAGANFCBERGZK60LEh8sb0i96AABYgrheza5jp/PgB/frERGRLq0LEeGB8qT0Sx8AAM4hrk8VIEREzhSFCAAALkVcl2bXq9NSgBARuTFzFCKMEwEAwDm1Hv/hmgKEiEivKEQAALBVChAiIguMQgQAAFujACEisuAoRAAAsBXtB6AMChAiIidljkKER3gCANDKPE/ACAoQIiKTZI5CRPDkDAAApjTPEzCCAoSIyKSZqxDh9gwAAKYwz/gP4cEH9usTEZGpE1+w+RfvtBQiAAA4hQKEiMhGohABAMCSKUCIiGwwv1g+8OH8y3g6ChEAAAwxxwCUcR28X5eIiMydnSdnAACwEAoQIiIXkDkKEcGTMwAAyHgEp4jIhWWuQoTbMwAAqM04/oMChIjIkqIQAQDAnBQgREQuPPsv6FmenGGcCACAyzbP7RfBEzBERBad+KKe48kZQa8IAIDLEuM/ZNeFU7u+nlWAEBFZTRQiAACY0ly3X3gChojIShP3z2Vf7FNTiAAA2DbjP4iISK/MVYiI+wI9xhMAYFvme/xmUIAQEdlE5ipEBL0iAAC2Ya7xH64pQIiIbCoKEQAA9DXf7RfBAJQiIptMfMHnX/zTU4gAAFin+W6/CAoQIiKbz1xPzgjGiQAAWIc5x3/wBAwRkQuL2zMAAOjMefuFAoSIyIVGIQIAgJnHfzAApYjIJWfOQkR077taJQAAizDz+A8KECIiEr+B5huwMugVAQBwXnM+fvN6PDIDUIqIyEHm7BWhEAEAcB7GfxARkcVk7tszPD0DAGAecz794prbL0REpEfmLEQEvSIAANqad/DJ4PYLEREZmOv797JfKtNTiAAAaGPO3g/GfxARkZOiVwQAwDrNOfjkNbdfiIjIBFGIAABYlzPcfqEAISIi0yW61eW/cNowaCUAwHDzDz4Z3H4hIiKNolcEAMAyzd37weM3RURklihEAAAsyxl6P7j9QkRE5svchYigGAEAcLf5B58MChAiInKG7H8BPTDnYzyDQgQAwLVz3H4R13/7dYuIiJwvc/eKMGglAHDJzjH4pPEfRERkUXF7BgBAe3P3frjm9gsREVlgFCIAANqZf/DJ4PYLERFZeBQjAACmc47eD26/EBGRVUUhAgDgNOcY++Ga2y9ERGSlmfvpGUExAgBYu3P1fnD7hYiIrD7n6BXhCRoAwBrp/SAiIjJBzlGICHpFAABrofeDiIjIxFGMAAC427l6Pxh8UkRELiIKEQAA185z60XQ+0FERC4sihEAwKWK3g/ZdUprbr8QEZGLjkIEAHBJzjfwZDD4pIiIyP438oMP5L8o21OMAADmEtcd2fVIa3o/iIiIJDlXrwiP8wQAWtL7QUREZKE5VyEi6BUBAEztXL0frun9ICIi0iuKEQDAmp2z94PbL0REREZEIQIAWKPz3XoR3H4hIiIyOlHFV4wAANbgnLde6P0gIiIyYc5ZiAiKEQDAMecdeDLo/SAiItIk5+4V4SkaAEDn3MUHvR9ERERmiF4RAMC5nbfnQ1B8EBERmTWKEQDA3M457kOI3g/77RAREZFz5NyFiKAYAQDb59YLERER+Xj0igAAWjj/oJPBwJMiIiKLS/x14PqvBNkv73koRgDAdizh1gu9H0RERBaec/eKCIoRALBe5y4+XNP7QUREZFVRjAAAhljCrRd6P4iIiKw4ChEAwG2WMe5D0PtBRERkE1GMAAAyS7j1wmM3RURENpglFCKCYgQAnN9Sig9uvRAREdl4FCMA4HItofhwza0XIiIiF5P4q4NiBABcjqUUH/R+EBERueAspRARFCMAYHqKDyIiIrK4KEYAwLbEEy+y37Pn4dYLERERSaIYAQDrtpzHbXrqhYiIiPRIdJVUjACAdVla8SGuJ/bbJSIiItIvSypEBMUIAHgoxQcRERHZVBQjAGB5llR8uGbcBxEREZkwihEAcH5LKz7o/SAiIiLNcl2IWNZ4EYoRAFwCxQcRERG52CytV0RQjABgixQfRERERO5EMQIA2ojfZ8sa8yEY90FEREQWEMUIADjd8gabvKb3g4iIiCwu14WIZRYjFCQAWDLFBxEREZGRUYwAgH4UH0REREQmylKLEUExAoBzUnwQERERaZQoRFxf1OQXPOekGAHAnOL3Tvb76NwUH0RERGRzWWqviKAYAUArS+31EBQfREREZPNZejFCQQKAKSg+iIiIiCwoSy5GxEWjYgQAYyg+iIiIiCw4Sy5GBMUIAG4ThYf4faH4ICIiIrKSrKEYoSABQG3JvR6C4oOIiIjILVl6MSIoRgBcrqUXHj7hwQ/ut1dERERE+mQtxQgFCYDLoPggIiIicgFZQzEiRDEiLlCvNhmATVhP4SEoPoiIiIhMlrUUI+JiVe8IgHVbS/HBmA8iIiIijRPFiOuLrvyCbEn0jgBYjzX1elB8EBEREZk51z0j9I4A4DSKDyIiIiIyKGspRoQoRihIAJzXusZ6UHwQERERWWTWVIwIihEA8+kKD2sqPsTvtf22i4iIiMiSs7ZihNs1ANqIwoNeDyIiIiIyS66LEQoSAJdkjYWHoPggIiIispGssRgRFCQA+llr4SEoPoiIiIhsOGssRgQFCYC7rbnwEBQfRERERC4oay1GBAUJ4FJtpPBgsEkRERGRS01cDF5fFOYXjEunIAFcgjUXHoJeDyIiIiJyV+LicM29I0IUIxQkgK1Ye+EhKD6IiIiIyK25LkasuyDR9ZCIi/irXQJYuLXfatFReBARERGR0Vl7MaKjlwSwRF3RYe2Fh6D4ICIiIiKTZQu9Izp6SQDnspXeDh2FBxERERFpnq0UIzp6SQAtbam3Q7hTeIjCtOKDiIiIiMyXOxehmypI6CUBnGprvR06ej2IiIiIyGKytWJERy8JoI8tFh2CXg8iIiIisujcuVjdZEFCLwmgE98D8X2wxcJD0OtBRERERFaXrRYjOl0vCUUJ2L74nG+1t0NH4UFERERENpG4qN16QSJ0PSXC1W4Dq9UVHLZcdAhReFB8EBEREZHN5lIKEh29JWD56l4OWy86BIUHEREREbnIXFpBIihKwPnF5y8+h5dQcOgoPIiIiIiIVLnEgkSIRlBXmLg6DMDkLqmXwyGFBxERERGRW3JdjLi8gkRHbwkYLz43l1x0CAoPIiIiIiIjc+kFiVD3llCYgE+Iz0N8Li654NBReBARERERmTgKEndTnOBS6N2QU3gQEREREZkpChK5ujARrg4VrERXbIhzV8Ehp/AgIiIiInLmKEjcri5O6DXBEujd0E8UHRQeREREREQWHEWJ/g6LEwoUTKk7p7pzTMGhn67ooPAgIiIiIrKyKEiM1zUYFSk4RpFhGno7iIiIiIhsNIoS06kLFIoU29S9p12hQZFhOno7iIiIiIhcWBQk2jpWpAhXh5+zqt+P7j1SZGhHbwcREREREbkrihLn0zV+DwsXQeHiZnUxIdTHrj6u2XGnLb0dRERERESkV+40HD543YjIGxicV93ArhvetcMG+jFXb3lj2XqPyfal3t/seHB+ejuIiIiIiMgkiYLEtbzxwWWoCwG1bF62ry46KDyIiIiIiEizdEUJPSXgcujpICIiIiIii8idv4TqLQEbcqfgEJ9rRQcREREREVluFCVgXepeDooOIiIiIiKy+nRFieuGTt4QAuZRFx3ufERFRERERES2mzt/cdVbAmZwp+AQnzdFBxERERERkbooobcEjFcXHMKdj5iIiIiIiIjcljsNKcUJOBCfhzsFB8UGERERERGRVqkLE9fyRhpsQVVs0LtBRERERERkKbnTQNNrgtXSu0FERERERGTlUZxgaapig94NIiIiIiIil5A7jb+r4kRQoGAqXZFBoUFERERERER65U7DUZGChzhWZAh3Th8RERERERGR6XKn0alIsVGKDCIiIiIiIrKKVI3WjxcpQtewVbCYX33sr4//Xe+NIoOIiIiIiIhcTuqG8F7dQP548SJrXF+iuphwfVzuOl4KCiIiIiIiIiJTp25w31E3xm902JDPZAWATPbaY7JtSRzul4KCiIjIqlPK/w+KAF6FMrwjdwAAAABJRU5ErkJggg==;fillColor=#FFE45E;strokeColor=#FF6392;fontColor=#5AA9E6;rounded=1;" vertex="1" parent="1">
          <mxGeometry x="164" y="73.86" width="142.41" height="142.28" as="geometry" />
        </mxCell>
        <mxCell id="l2QLVtC1Fgoo-gUZ7Y_P-23" style="edgeStyle=orthogonalEdgeStyle;rounded=1;orthogonalLoop=1;jettySize=auto;html=1;entryX=0.002;entryY=0.392;entryDx=0;entryDy=0;entryPerimeter=0;shape=link;strokeWidth=2;strokeColor=#FF6392;labelBackgroundColor=none;fontColor=default;" edge="1" parent="1" source="l2QLVtC1Fgoo-gUZ7Y_P-5" target="l2QLVtC1Fgoo-gUZ7Y_P-9">
          <mxGeometry relative="1" as="geometry" />
        </mxCell>
        <mxCell id="l2QLVtC1Fgoo-gUZ7Y_P-26" style="edgeStyle=orthogonalEdgeStyle;rounded=1;orthogonalLoop=1;jettySize=auto;html=1;entryX=0.5;entryY=1;entryDx=0;entryDy=0;strokeWidth=2;strokeColor=#FF6392;labelBackgroundColor=none;fontColor=default;" edge="1" parent="1" target="l2QLVtC1Fgoo-gUZ7Y_P-4">
          <mxGeometry relative="1" as="geometry">
            <mxPoint x="409" y="208" as="sourcePoint" />
            <Array as="points">
              <mxPoint x="409" y="266" />
              <mxPoint x="235" y="266" />
            </Array>
          </mxGeometry>
        </mxCell>
        <mxCell id="l2QLVtC1Fgoo-gUZ7Y_P-5" value="&lt;font color=&quot;#999999&quot;&gt;boto3&lt;/font&gt;" style="outlineConnect=0;dashed=0;verticalLabelPosition=bottom;verticalAlign=top;align=center;html=1;shape=mxgraph.aws3.android;fillColor=#FFE45E;strokeWidth=2;labelBackgroundColor=none;strokeColor=#FF6392;fontColor=#5AA9E6;rounded=1;" vertex="1" parent="1">
          <mxGeometry x="372" y="103" width="73.5" height="84" as="geometry" />
        </mxCell>
        <mxCell id="l2QLVtC1Fgoo-gUZ7Y_P-6" value="&lt;font color=&quot;#999999&quot;&gt;AWS boto3 users&lt;/font&gt;" style="text;html=1;align=center;verticalAlign=middle;resizable=0;points=[];autosize=1;strokeColor=none;fillColor=none;labelBackgroundColor=none;fontColor=#5AA9E6;rounded=1;" vertex="1" parent="1">
          <mxGeometry x="-67" y="204.14" width="111" height="26" as="geometry" />
        </mxCell>
        <mxCell id="l2QLVtC1Fgoo-gUZ7Y_P-9" value="" style="rounded=1;whiteSpace=wrap;html=1;fillColor=none;strokeColor=#FF6392;labelBackgroundColor=none;fontColor=#5AA9E6;" vertex="1" parent="1">
          <mxGeometry x="520" y="7" width="97" height="353" as="geometry" />
        </mxCell>
        <mxCell id="l2QLVtC1Fgoo-gUZ7Y_P-11" value="" style="points=[[0,0,0],[0.25,0,0],[0.5,0,0],[0.75,0,0],[1,0,0],[0,1,0],[0.25,1,0],[0.5,1,0],[0.75,1,0],[1,1,0],[0,0.25,0],[0,0.5,0],[0,0.75,0],[1,0.25,0],[1,0.5,0],[1,0.75,0]];outlineConnect=0;fontColor=#5AA9E6;fillColor=#FFE45E;strokeColor=#FF6392;dashed=0;verticalLabelPosition=bottom;verticalAlign=top;align=center;html=1;fontSize=12;fontStyle=0;aspect=fixed;shape=mxgraph.aws4.resourceIcon;resIcon=mxgraph.aws4.s3;labelBackgroundColor=none;rounded=1;" vertex="1" parent="1">
          <mxGeometry x="543.5" y="39" width="50" height="50" as="geometry" />
        </mxCell>
        <mxCell id="l2QLVtC1Fgoo-gUZ7Y_P-12" value="" style="points=[[0,0,0],[0.25,0,0],[0.5,0,0],[0.75,0,0],[1,0,0],[0,1,0],[0.25,1,0],[0.5,1,0],[0.75,1,0],[1,1,0],[0,0.25,0],[0,0.5,0],[0,0.75,0],[1,0.25,0],[1,0.5,0],[1,0.75,0]];outlineConnect=0;fontColor=#5AA9E6;fillColor=#FFE45E;strokeColor=#FF6392;dashed=0;verticalLabelPosition=bottom;verticalAlign=top;align=center;html=1;fontSize=12;fontStyle=0;aspect=fixed;shape=mxgraph.aws4.resourceIcon;resIcon=mxgraph.aws4.ec2;labelBackgroundColor=none;rounded=1;" vertex="1" parent="1">
          <mxGeometry x="543.5" y="94" width="50" height="50" as="geometry" />
        </mxCell>
        <mxCell id="l2QLVtC1Fgoo-gUZ7Y_P-13" value="" style="points=[[0,0,0],[0.25,0,0],[0.5,0,0],[0.75,0,0],[1,0,0],[0,1,0],[0.25,1,0],[0.5,1,0],[0.75,1,0],[1,1,0],[0,0.25,0],[0,0.5,0],[0,0.75,0],[1,0.25,0],[1,0.5,0],[1,0.75,0]];outlineConnect=0;fontColor=#5AA9E6;fillColor=#FFE45E;strokeColor=#FF6392;dashed=0;verticalLabelPosition=bottom;verticalAlign=top;align=center;html=1;fontSize=12;fontStyle=0;aspect=fixed;shape=mxgraph.aws4.resourceIcon;resIcon=mxgraph.aws4.secrets_manager;labelBackgroundColor=none;rounded=1;" vertex="1" parent="1">
          <mxGeometry x="543.5" y="150" width="50" height="50" as="geometry" />
        </mxCell>
        <mxCell id="l2QLVtC1Fgoo-gUZ7Y_P-14" value="" style="points=[[0,0,0],[0.25,0,0],[0.5,0,0],[0.75,0,0],[1,0,0],[0,1,0],[0.25,1,0],[0.5,1,0],[0.75,1,0],[1,1,0],[0,0.25,0],[0,0.5,0],[0,0.75,0],[1,0.25,0],[1,0.5,0],[1,0.75,0]];outlineConnect=0;fontColor=#5AA9E6;fillColor=#FFE45E;strokeColor=#FF6392;dashed=0;verticalLabelPosition=bottom;verticalAlign=top;align=center;html=1;fontSize=12;fontStyle=0;aspect=fixed;shape=mxgraph.aws4.resourceIcon;resIcon=mxgraph.aws4.redshift;labelBackgroundColor=none;rounded=1;" vertex="1" parent="1">
          <mxGeometry x="543.5" y="260" width="50" height="50" as="geometry" />
        </mxCell>
        <mxCell id="l2QLVtC1Fgoo-gUZ7Y_P-15" value="" style="points=[[0,0,0],[0.25,0,0],[0.5,0,0],[0.75,0,0],[1,0,0],[0,1,0],[0.25,1,0],[0.5,1,0],[0.75,1,0],[1,1,0],[0,0.25,0],[0,0.5,0],[0,0.75,0],[1,0.25,0],[1,0.5,0],[1,0.75,0]];outlineConnect=0;fontColor=#5AA9E6;fillColor=#FFE45E;strokeColor=#FF6392;dashed=0;verticalLabelPosition=bottom;verticalAlign=top;align=center;html=1;fontSize=12;fontStyle=0;aspect=fixed;shape=mxgraph.aws4.resourceIcon;resIcon=mxgraph.aws4.glue;labelBackgroundColor=none;rounded=1;" vertex="1" parent="1">
          <mxGeometry x="543.5" y="205" width="50" height="50" as="geometry" />
        </mxCell>
        <mxCell id="l2QLVtC1Fgoo-gUZ7Y_P-16" value="&lt;i&gt;AWS&lt;br&gt;Services&lt;/i&gt;" style="text;html=1;align=center;verticalAlign=middle;resizable=0;points=[];autosize=1;strokeColor=none;fillColor=none;fontColor=#5AA9E6;labelBackgroundColor=none;rounded=1;" vertex="1" parent="1">
          <mxGeometry x="536.5" y="-34" width="64" height="41" as="geometry" />
        </mxCell>
        <mxCell id="l2QLVtC1Fgoo-gUZ7Y_P-17" value="..." style="text;html=1;align=center;verticalAlign=middle;resizable=0;points=[];autosize=1;strokeColor=none;fillColor=none;fontSize=22;fontStyle=1;fontColor=#5AA9E6;labelBackgroundColor=none;rounded=1;" vertex="1" parent="1">
          <mxGeometry x="548" y="314" width="36" height="38" as="geometry" />
        </mxCell>
        <mxCell id="l2QLVtC1Fgoo-gUZ7Y_P-18" value="&lt;i&gt;wraps&lt;/i&gt;" style="text;html=1;align=center;verticalAlign=middle;resizable=0;points=[];autosize=1;strokeColor=none;fillColor=none;fontColor=#5AA9E6;labelBackgroundColor=none;rounded=1;" vertex="1" parent="1">
          <mxGeometry x="308" y="113" width="50" height="26" as="geometry" />
        </mxCell>
        <mxCell id="l2QLVtC1Fgoo-gUZ7Y_P-24" value="&lt;i&gt;clients /&lt;br&gt;resources&lt;br&gt;&lt;/i&gt;" style="text;html=1;align=center;verticalAlign=middle;resizable=0;points=[];autosize=1;strokeColor=none;fillColor=none;fontColor=#5AA9E6;labelBackgroundColor=none;rounded=1;" vertex="1" parent="1">
          <mxGeometry x="445.5" y="98" width="71" height="41" as="geometry" />
        </mxCell>
        <mxCell id="l2QLVtC1Fgoo-gUZ7Y_P-27" value="&lt;i&gt;&lt;font color=&quot;#999999&quot;&gt;Useful functions, classes and methods&lt;/font&gt;&lt;/i&gt;" style="text;html=1;align=center;verticalAlign=middle;resizable=0;points=[];autosize=1;strokeColor=none;fillColor=none;labelBackgroundColor=none;fontColor=#5AA9E6;rounded=1;" vertex="1" parent="1">
          <mxGeometry x="211" y="272" width="223" height="26" as="geometry" />
        </mxCell>
      </root>
    </mxGraphModel>
  </diagram>
</mxfile>
